<?xml version="1.0" encoding="UTF-8"?>
<svg version="1.1" xmlns="http://www.w3.org/2000/svg" width="785" height="234">
<path d="M0 0 C5.89166917 3.81225652 8.43298508 8.15321321 10 15 C10.76873636 23.85007739 10.01041809 32.36597231 8 41 C8.83402344 41.10957031 9.66804687 41.21914063 10.52734375 41.33203125 C27.5457434 43.72981264 27.5457434 43.72981264 32.5 48.3125 C34.76247829 50.2012052 34.76247829 50.2012052 36.9140625 49.9140625 C40.15268633 49.21598457 43.2603327 48.25218673 46.39453125 47.18359375 C58.60346432 43.30149061 71.52617648 43.32590236 83.2890625 48.5703125 C88.56443197 51.35242378 92.92572306 54.59978091 97 59 C97.680625 58.443125 98.36125 57.88625 99.0625 57.3125 C100.031875 56.549375 101.00125 55.78625 102 55 C102.94875 54.195625 103.8975 53.39125 104.875 52.5625 C116.91253162 44.29792605 131.87460986 43.23024218 146 45 C150.60013433 46.04729858 154.83102486 47.79752257 159 50 C159 50.66 159 51.32 159 52 C159.66 52 160.32 52 161 52 C161 51.34 161 50.68 161 50 C168.99474862 43.86449525 178.32065832 44.2769707 188 45 C192.76875614 45.87306773 196.73556256 47.23034243 200.875 49.75 C202.84674527 51.20991444 202.84674527 51.20991444 204.7421875 50.73828125 C206.48415482 50.16867602 208.19617666 49.50698124 209.890625 48.80859375 C220.04086798 44.6658783 229.93975705 42.62366282 240.609375 46.21484375 C248.89191825 50.10843166 248.89191825 50.10843166 251 55 C252.96672915 56.1500831 252.96672915 56.1500831 255 57 C255.66 57.66 256.32 58.32 257 59 C257.69609375 58.23816406 257.69609375 58.23816406 258.40625 57.4609375 C269.05231988 46.85459176 282.41425684 44.04191306 297 44 C300.40718689 35.83601948 301.98170275 28.00300371 303.0625 19.25 C305.3259737 1.16197871 305.3259737 1.16197871 310.9375 -3.375 C319.00538397 -7.65591802 329.21565337 -6.97841927 337.875 -4.75 C339.59520407 -4.20266234 341.30515776 -3.62144215 343 -3 C344.09441406 -2.59974609 344.09441406 -2.59974609 345.2109375 -2.19140625 C351.83833067 0.66522874 356.4363861 5.60083934 359.4375 12.125 C361.18883509 24.18975282 359.29558194 34.48531613 356 46 C355.65970873 47.33157453 355.32215107 48.66392082 355 50 C355.88558594 49.6390625 356.77117187 49.278125 357.68359375 48.90625 C372.28749867 43.3017994 385.73168329 43.23263524 400.25 49.375 C404.300815 51.76866341 407.66858469 54.66858469 411 58 C411.391875 57.566875 411.78375 57.13375 412.1875 56.6875 C416.65418982 52.52885776 422.42317886 50.30181388 428 48 C429.19238281 47.47277344 430.38476562 46.94554687 431.61328125 46.40234375 C436.66350491 44.5336372 441.54071835 44.52214436 446.875 44.5625 C448.26912109 44.5325293 448.26912109 44.5325293 449.69140625 44.50195312 C455.82537664 44.50623065 460.31595953 45.58831263 465.81298828 48.33569336 C467.99709281 49.23710908 467.99709281 49.23710908 470.09716797 48.24438477 C471.74697392 47.1654701 473.37558855 46.05428287 475 44.9375 C482.10466695 40.34906926 492.89666894 40.87429694 501.06494141 42.38085938 C504.07739508 43.1183574 507.00871367 44.04482768 509.94921875 45.02734375 C514.59752745 46.50932693 518.44695942 47.46540659 523.1875 46.0625 C533.64179601 43.52334938 542.56855763 45.01169695 552.0234375 50.0859375 C553.6875 51.125 553.6875 51.125 556 53 C556 53.66 556 54.32 556 55 C556.59554687 55.23460937 557.19109375 55.46921875 557.8046875 55.7109375 C562.92666385 58.71850368 565.40567467 65.37911274 567.375 70.75 C569.89708936 83.46338921 567.42150463 95.48316558 563.0625 107.375 C562.80968262 108.06577637 562.55686523 108.75655273 562.29638672 109.46826172 C560.91935915 113.07291183 559.45239017 116.02639339 557 119 C555.14511735 122.18807955 553.33395159 125.39017535 551.5625 128.625 C549.68068372 131.48536075 547.44972891 133.60642533 545 136 C544.16082031 136.825 543.32164062 137.65 542.45703125 138.5 C529.28063257 150.95627054 517.80009555 153.46167395 500 153 C494.39593347 165.40048764 491.63361857 177.84440975 491.2734375 191.37890625 C490.98489824 195.19999044 490.30758168 198.39973287 489 202 C481.52020588 208.17896036 473.24255343 207.50935916 464 207 C457.08559532 205.91050944 450.3669418 203.65955119 445 199 C445 198.34 445 197.68 445 197 C444.401875 196.835 443.80375 196.67 443.1875 196.5 C439.70039027 194.10883904 438.82794871 190.97175394 438 187 C437.1091789 177.29727291 438.61103779 168.38255625 441 159 C441.33382401 157.66678943 441.66725758 156.33348092 442 155 C441.41210693 155.02618408 440.82421387 155.05236816 440.21850586 155.0793457 C426.3549046 155.61334107 412.42846058 156.1159841 400.9375 147.0625 C398.17841411 144.62331973 398.17841411 144.62331973 395 145.4375 C391.95511546 146.97357933 391.95511546 146.97357933 389 148.875 C377.25414269 155.68196742 361.79789673 157.45571165 348.6953125 153.9765625 C343.97001982 152.53158251 339.46851248 150.91077019 335.25390625 148.296875 C333.01911475 146.67983377 333.01911475 146.67983377 330.25 147.5625 C328.45198243 148.357777 326.65511644 149.15573353 324.86328125 149.96484375 C315.79678087 154.04399927 307.65747447 156.74565301 297.83203125 153.22265625 C297.18621094 152.94292969 296.54039062 152.66320312 295.875 152.375 C290.91949494 150.31189177 286.07214986 150.78764334 281.109375 152.74609375 C280.49578125 153.01550781 279.8821875 153.28492188 279.25 153.5625 C270.44464126 157.09163188 261.19861909 155.22773349 252.55859375 152.16796875 C250 151 250 151 247.82421875 149.328125 C247.22222656 148.88984375 246.62023437 148.4515625 246 148 C243.18882252 148.51527389 243.18882252 148.51527389 240 150 C238.31457322 150.69256702 236.62691011 151.37970721 234.9375 152.0625 C234.12152344 152.40410156 233.30554688 152.74570313 232.46484375 153.09765625 C224.07502046 156.16904956 216.40415913 155.8053759 208.2890625 152.1875 C201.39301055 148.61002595 198.32220439 143.74730892 195 137 C194.70996094 138.01320312 194.70996094 138.01320312 194.4140625 139.046875 C194.02347656 140.38492188 194.02347656 140.38492188 193.625 141.75 C193.36976563 142.63171875 193.11453125 143.5134375 192.8515625 144.421875 C191.32560818 149.04173669 189.93046398 151.87842635 185.43359375 154.234375 C175.53375427 157.34893124 164.29744975 155.01145379 155 151 C153.66609724 150.00075968 152.33264073 149.0009228 151 148 C146.6748133 148.20117147 142.70125508 149.67689824 138.63671875 151.0859375 C137.76660156 151.38757813 136.89648438 151.68921875 136 152 C135.0406958 152.3727002 135.0406958 152.3727002 134.06201172 152.75292969 C128.2144284 154.91144225 122.96436571 155.54406946 116.75 155.5 C115.8326709 155.49572998 114.9153418 155.49145996 113.97021484 155.48706055 C104.48044056 155.25077636 96.66341355 152.94593327 89 147.125 C86.27625409 144.70789173 86.27625409 144.70789173 83.5546875 145.22265625 C81.05078376 145.98454745 79.30929863 146.89577619 77.125 148.3125 C67.40918967 153.88979545 56.05703492 155.58819237 45 156 C44.9175 156.99 44.835 157.98 44.75 159 C43.37081742 168.05542245 37.66216652 174.98702223 31 181 C22.20024789 186.35575967 12.49748793 187.41658246 2.48828125 185.234375 C-6.57795384 182.4017999 -12.54254619 177.8686858 -19 171 C-19.79857422 170.17628906 -19.79857422 170.17628906 -20.61328125 169.3359375 C-23.99341423 165.58953624 -29 159.2462287 -29 154 C-29.8499353 154.23904053 -29.8499353 154.23904053 -30.71704102 154.48291016 C-41.74712608 156.98122265 -54.2390842 155.9880127 -64.40625 151.19140625 C-68.40206051 149.35598124 -70.73016492 148.61016721 -75.015625 149.92578125 C-76.61664063 150.61220703 -76.61664063 150.61220703 -78.25 151.3125 C-94.3637221 157.80124715 -110.34862698 157.61295852 -126.6875 151.375 C-137.0098334 146.37541679 -143.19866261 138.07004198 -147.3125 127.6875 C-149.04734649 118.38241427 -148.798908 109.99532679 -143.67578125 101.91015625 C-136.75960569 92.16216077 -128.67941304 88.11200959 -117 86 C-117.02320312 85.32195312 -117.04640625 84.64390625 -117.0703125 83.9453125 C-117.31415041 71.37024319 -115.11838919 61.34800201 -106.3125 51.875 C-104 50 -104 50 -101 50 C-101 49.34 -101 48.68 -101 48 C-86.76453067 42.09958414 -73.98582074 39.4403749 -59 45 C-56.66015625 46.60546875 -56.66015625 46.60546875 -55 48 C-53.9675872 44.67594365 -52.97809113 41.34042988 -52 38 C-51.67515625 36.89914063 -51.3503125 35.79828125 -51.015625 34.6640625 C-48.74791503 26.62241408 -47.1809218 18.71892652 -46.12695312 10.43383789 C-45.33185972 4.64806999 -43.79901864 -0.26742994 -39 -4 C-26.6070196 -8.89243929 -11.58213802 -6.02271177 0 0 Z " fill="#3F3C3C" transform="translate(182,15)"/>
<path d="M0 0 C5.89166917 3.81225652 8.43298508 8.15321321 10 15 C10.76873636 23.85007739 10.01041809 32.36597231 8 41 C8.83402344 41.10957031 9.66804687 41.21914063 10.52734375 41.33203125 C27.5457434 43.72981264 27.5457434 43.72981264 32.5 48.3125 C34.76247829 50.2012052 34.76247829 50.2012052 36.9140625 49.9140625 C40.15268633 49.21598457 43.2603327 48.25218673 46.39453125 47.18359375 C58.60346432 43.30149061 71.52617648 43.32590236 83.2890625 48.5703125 C88.56443197 51.35242378 92.92572306 54.59978091 97 59 C97.680625 58.443125 98.36125 57.88625 99.0625 57.3125 C100.031875 56.549375 101.00125 55.78625 102 55 C102.94875 54.195625 103.8975 53.39125 104.875 52.5625 C116.91253162 44.29792605 131.87460986 43.23024218 146 45 C150.60013433 46.04729858 154.83102486 47.79752257 159 50 C159 50.66 159 51.32 159 52 C159.66 52 160.32 52 161 52 C161 51.34 161 50.68 161 50 C168.99474862 43.86449525 178.32065832 44.2769707 188 45 C192.76875614 45.87306773 196.73556256 47.23034243 200.875 49.75 C202.84674527 51.20991444 202.84674527 51.20991444 204.7421875 50.73828125 C206.48415482 50.16867602 208.19617666 49.50698124 209.890625 48.80859375 C220.04086798 44.6658783 229.93975705 42.62366282 240.609375 46.21484375 C248.89191825 50.10843166 248.89191825 50.10843166 251 55 C252.96672915 56.1500831 252.96672915 56.1500831 255 57 C255.66 57.66 256.32 58.32 257 59 C257.69609375 58.23816406 257.69609375 58.23816406 258.40625 57.4609375 C269.05231988 46.85459176 282.41425684 44.04191306 297 44 C300.40718689 35.83601948 301.98170275 28.00300371 303.0625 19.25 C305.3259737 1.16197871 305.3259737 1.16197871 310.9375 -3.375 C319.00538397 -7.65591802 329.21565337 -6.97841927 337.875 -4.75 C339.59520407 -4.20266234 341.30515776 -3.62144215 343 -3 C344.09441406 -2.59974609 344.09441406 -2.59974609 345.2109375 -2.19140625 C351.83833067 0.66522874 356.4363861 5.60083934 359.4375 12.125 C361.18883509 24.18975282 359.29558194 34.48531613 356 46 C355.65970873 47.33157453 355.32215107 48.66392082 355 50 C355.88558594 49.6390625 356.77117187 49.278125 357.68359375 48.90625 C372.28749867 43.3017994 385.73168329 43.23263524 400.25 49.375 C404.300815 51.76866341 407.66858469 54.66858469 411 58 C411.391875 57.566875 411.78375 57.13375 412.1875 56.6875 C416.65418982 52.52885776 422.42317886 50.30181388 428 48 C429.19238281 47.47277344 430.38476562 46.94554687 431.61328125 46.40234375 C436.66350491 44.5336372 441.54071835 44.52214436 446.875 44.5625 C448.26912109 44.5325293 448.26912109 44.5325293 449.69140625 44.50195312 C455.82537664 44.50623065 460.31595953 45.58831263 465.81298828 48.33569336 C467.99709281 49.23710908 467.99709281 49.23710908 470.09716797 48.24438477 C471.74697392 47.1654701 473.37558855 46.05428287 475 44.9375 C482.10466695 40.34906926 492.89666894 40.87429694 501.06494141 42.38085938 C504.07739508 43.1183574 507.00871367 44.04482768 509.94921875 45.02734375 C514.59752745 46.50932693 518.44695942 47.46540659 523.1875 46.0625 C533.64179601 43.52334938 542.56855763 45.01169695 552.0234375 50.0859375 C553.6875 51.125 553.6875 51.125 556 53 C556 53.66 556 54.32 556 55 C556.59554687 55.23460937 557.19109375 55.46921875 557.8046875 55.7109375 C562.92666385 58.71850368 565.40567467 65.37911274 567.375 70.75 C569.89708936 83.46338921 567.42150463 95.48316558 563.0625 107.375 C562.80968262 108.06577637 562.55686523 108.75655273 562.29638672 109.46826172 C560.91935915 113.07291183 559.45239017 116.02639339 557 119 C555.14511735 122.18807955 553.33395159 125.39017535 551.5625 128.625 C549.68068372 131.48536075 547.44972891 133.60642533 545 136 C544.16082031 136.825 543.32164062 137.65 542.45703125 138.5 C529.28063257 150.95627054 517.80009555 153.46167395 500 153 C494.39593347 165.40048764 491.63361857 177.84440975 491.2734375 191.37890625 C490.98489824 195.19999044 490.30758168 198.39973287 489 202 C481.52020588 208.17896036 473.24255343 207.50935916 464 207 C457.08559532 205.91050944 450.3669418 203.65955119 445 199 C445 198.34 445 197.68 445 197 C444.401875 196.835 443.80375 196.67 443.1875 196.5 C439.70039027 194.10883904 438.82794871 190.97175394 438 187 C437.1091789 177.29727291 438.61103779 168.38255625 441 159 C441.33382401 157.66678943 441.66725758 156.33348092 442 155 C441.41210693 155.02618408 440.82421387 155.05236816 440.21850586 155.0793457 C426.3549046 155.61334107 412.42846058 156.1159841 400.9375 147.0625 C398.17841411 144.62331973 398.17841411 144.62331973 395 145.4375 C391.95511546 146.97357933 391.95511546 146.97357933 389 148.875 C377.25414269 155.68196742 361.79789673 157.45571165 348.6953125 153.9765625 C343.97001982 152.53158251 339.46851248 150.91077019 335.25390625 148.296875 C333.01911475 146.67983377 333.01911475 146.67983377 330.25 147.5625 C328.45198243 148.357777 326.65511644 149.15573353 324.86328125 149.96484375 C315.79678087 154.04399927 307.65747447 156.74565301 297.83203125 153.22265625 C297.18621094 152.94292969 296.54039062 152.66320312 295.875 152.375 C290.91949494 150.31189177 286.07214986 150.78764334 281.109375 152.74609375 C280.49578125 153.01550781 279.8821875 153.28492188 279.25 153.5625 C270.44464126 157.09163188 261.19861909 155.22773349 252.55859375 152.16796875 C250 151 250 151 247.82421875 149.328125 C247.22222656 148.88984375 246.62023437 148.4515625 246 148 C243.18882252 148.51527389 243.18882252 148.51527389 240 150 C238.31457322 150.69256702 236.62691011 151.37970721 234.9375 152.0625 C234.12152344 152.40410156 233.30554688 152.74570313 232.46484375 153.09765625 C224.07502046 156.16904956 216.40415913 155.8053759 208.2890625 152.1875 C201.39301055 148.61002595 198.32220439 143.74730892 195 137 C194.70996094 138.01320312 194.70996094 138.01320312 194.4140625 139.046875 C194.02347656 140.38492188 194.02347656 140.38492188 193.625 141.75 C193.36976563 142.63171875 193.11453125 143.5134375 192.8515625 144.421875 C191.32560818 149.04173669 189.93046398 151.87842635 185.43359375 154.234375 C175.53375427 157.34893124 164.29744975 155.01145379 155 151 C153.66609724 150.00075968 152.33264073 149.0009228 151 148 C146.6748133 148.20117147 142.70125508 149.67689824 138.63671875 151.0859375 C137.76660156 151.38757813 136.89648438 151.68921875 136 152 C135.0406958 152.3727002 135.0406958 152.3727002 134.06201172 152.75292969 C128.2144284 154.91144225 122.96436571 155.54406946 116.75 155.5 C115.8326709 155.49572998 114.9153418 155.49145996 113.97021484 155.48706055 C104.48044056 155.25077636 96.66341355 152.94593327 89 147.125 C86.27625409 144.70789173 86.27625409 144.70789173 83.5546875 145.22265625 C81.05078376 145.98454745 79.30929863 146.89577619 77.125 148.3125 C67.40918967 153.88979545 56.05703492 155.58819237 45 156 C44.9175 156.99 44.835 157.98 44.75 159 C43.37081742 168.05542245 37.66216652 174.98702223 31 181 C22.20024789 186.35575967 12.49748793 187.41658246 2.48828125 185.234375 C-6.57795384 182.4017999 -12.54254619 177.8686858 -19 171 C-19.79857422 170.17628906 -19.79857422 170.17628906 -20.61328125 169.3359375 C-23.99341423 165.58953624 -29 159.2462287 -29 154 C-29.8499353 154.23904053 -29.8499353 154.23904053 -30.71704102 154.48291016 C-41.74712608 156.98122265 -54.2390842 155.9880127 -64.40625 151.19140625 C-68.40206051 149.35598124 -70.73016492 148.61016721 -75.015625 149.92578125 C-76.61664063 150.61220703 -76.61664063 150.61220703 -78.25 151.3125 C-94.3637221 157.80124715 -110.34862698 157.61295852 -126.6875 151.375 C-137.0098334 146.37541679 -143.19866261 138.07004198 -147.3125 127.6875 C-149.04734649 118.38241427 -148.798908 109.99532679 -143.67578125 101.91015625 C-136.75960569 92.16216077 -128.67941304 88.11200959 -117 86 C-117.02320312 85.32195312 -117.04640625 84.64390625 -117.0703125 83.9453125 C-117.31415041 71.37024319 -115.11838919 61.34800201 -106.3125 51.875 C-104 50 -104 50 -101 50 C-101 49.34 -101 48.68 -101 48 C-86.76453067 42.09958414 -73.98582074 39.4403749 -59 45 C-56.66015625 46.60546875 -56.66015625 46.60546875 -55 48 C-53.9675872 44.67594365 -52.97809113 41.34042988 -52 38 C-51.67515625 36.89914063 -51.3503125 35.79828125 -51.015625 34.6640625 C-48.74791503 26.62241408 -47.1809218 18.71892652 -46.12695312 10.43383789 C-45.33185972 4.64806999 -43.79901864 -0.26742994 -39 -4 C-26.6070196 -8.89243929 -11.58213802 -6.02271177 0 0 Z M-37 3 C-37.44509046 5.81236471 -37.44509046 5.81236471 -37.4453125 9.1328125 C-37.83320114 16.69181649 -39.35058218 23.57478048 -41.32861328 30.86132812 C-41.8794136 32.89126601 -42.41180926 34.9253752 -42.94140625 36.9609375 C-44.46190525 42.74283152 -46.02052501 48.45950357 -48.23583984 54.01806641 C-49.97350921 58.52490343 -51.37477808 63.15992418 -52.875 67.75 C-55.33133194 75.20982482 -57.87926718 82.51330431 -61.03515625 89.70703125 C-62.31708119 92.75354923 -63.19920306 95.79681225 -64 99 C-65.74690849 95.54837888 -67.41551413 92.0628508 -69.0625 88.5625 C-69.58972656 87.45003906 -70.11695312 86.33757812 -70.66015625 85.19140625 C-72 82 -72 82 -73 77 C-69.04 77.33 -65.08 77.66 -61 78 C-57.91087975 71.24254945 -55.71863973 65.48794906 -57 58 C-59.58011348 53.05478249 -63.97896677 51.00056793 -69 49 C-76.72092824 46.64258544 -84.14505805 47.17169282 -91.375 50.6875 C-98.85199103 54.85115775 -103.73027657 58.74379837 -107.1875 66.75 C-109.98093603 77.92374412 -106.13306792 88.29005837 -100.75 98.125 C-97.80783584 103.71214003 -96.83264427 108.73668753 -98 115 C-100.35953094 117.35953094 -101.77895617 117.49141413 -105 118 C-104.505 117.01 -104.01 116.02 -103.5 115 C-101.6935516 110.7010002 -101.40881717 107.65556479 -102 103 C-105.14103491 97.95530758 -108.33706619 95.69888014 -114 94 C-119.99339507 93.0280981 -124.17808034 93.94809737 -129.14453125 97.4375 C-133.7724725 101.33471368 -138.25371264 106.03893632 -139.40625 112.15625 C-139.74637039 120.65925964 -136.62619603 127.77689927 -131.1015625 134.2109375 C-122.08588987 142.65644902 -110.73028169 143.6407846 -98.8671875 143.41015625 C-88.59559369 142.8399663 -77.97133409 138.6684675 -71 131 C-71 130.34 -71 129.68 -71 129 C-70.34 129 -69.68 129 -69 129 C-68.91492188 129.74765625 -68.82984375 130.4953125 -68.7421875 131.265625 C-67.84897138 134.55642124 -66.72427067 135.59822281 -64.125 137.75 C-63.42632812 138.34296875 -62.72765625 138.9359375 -62.0078125 139.546875 C-58.75328265 141.90229349 -56.0444174 142.1276891 -52.1484375 142.1328125 C-51.21515625 142.13410156 -50.281875 142.13539063 -49.3203125 142.13671875 C-48.34835938 142.13285156 -47.37640625 142.12898437 -46.375 142.125 C-45.3953125 142.12886719 -44.415625 142.13273438 -43.40625 142.13671875 C-42.47554688 142.13542969 -41.54484375 142.13414062 -40.5859375 142.1328125 C-39.30275635 142.13112061 -39.30275635 142.13112061 -37.99365234 142.12939453 C-36.00024114 142.2201828 -36.00024114 142.2201828 -35 141 C-34.70356264 139.44412257 -34.46219106 137.87764813 -34.24609375 136.30859375 C-34.04790039 134.89223633 -34.04790039 134.89223633 -33.84570312 133.44726562 C-33.64364258 131.95743164 -33.64364258 131.95743164 -33.4375 130.4375 C-33.29892578 129.44041016 -33.16035156 128.44332031 -33.01757812 127.41601562 C-32.67464094 124.94450284 -32.33562546 122.47251455 -32 120 C-31.81115234 120.75144287 -31.62230469 121.50288574 -31.42773438 122.27709961 C-29.83608764 128.52500109 -27.87359686 134.23432656 -25 140 C-24.25943359 141.5159375 -24.25943359 141.5159375 -23.50390625 143.0625 C-17.28412606 155.24350139 -8.97278128 167.41278118 4.0625 172.9375 C10.41301243 174.92908082 15.1235299 174.65972371 21.125 171.9375 C28.04377321 168.15396196 31.89483366 163.36028837 34.5546875 155.9921875 C35.08493091 153.62004593 35.07545365 151.42290049 35 149 C34.20335937 148.69707031 33.40671875 148.39414063 32.5859375 148.08203125 C15.82059504 141.45339828 8.5583125 128.69173264 1.56640625 112.7265625 C-1.57949169 104.60600933 -1.57949169 104.60600933 0 101 C1.70703125 99.40234375 1.70703125 99.40234375 3.8125 97.9375 C4.49957031 97.45152344 5.18664062 96.96554688 5.89453125 96.46484375 C6.58933594 95.98144531 7.28414062 95.49804688 8 95 C9.33692677 94.00480926 10.67133891 93.00619952 12 92 C11.2575 93.2684375 11.2575 93.2684375 10.5 94.5625 C7.40847851 101.79077168 7.92401393 111.43357091 10.125 118.875 C13.92721709 128.23971988 20.01036395 135.47929443 29.109375 140.0625 C41.43879572 145.03249905 54.64517812 143.37582586 66.8125 138.6875 C73.42520238 135.18665756 78.47532603 130.93863458 83 125 C87 130 87 130 88.625 132.4375 C94.81699287 139.11833441 102.87792453 142.6136962 111.84765625 143.1796875 C125.70256029 143.49496977 137.22224138 139.71181413 148 131 C149.485 130.01 149.485 130.01 151 129 C151.2475 129.721875 151.495 130.44375 151.75 131.1875 C154.04871713 136.35961353 156.6019326 139.23942231 161.89819336 141.40234375 C165.86360101 142.52992162 169.84915366 142.30875134 173.9375 142.1875 C174.81212891 142.17396484 175.68675781 142.16042969 176.58789062 142.14648438 C178.72553086 142.11144109 180.86284984 142.05764541 183 142 C184.4418463 138.09423912 185.31292566 134.3616276 185.88598633 130.24047852 C188.27830683 113.45549295 196.29966095 96.39487972 208 84 C210.2109375 82.75 210.2109375 82.75 212 82 C211.54109375 83.08796875 211.0821875 84.1759375 210.609375 85.296875 C209.00090158 89.13162285 207.42982033 92.9805112 205.87646484 96.83789062 C205.14877599 98.63299161 204.39940078 100.41928347 203.64453125 102.203125 C201.34846265 108.13808932 200.63204397 113.56607937 200.5625 119.875 C200.55226807 120.58914062 200.54203613 121.30328125 200.53149414 122.0390625 C200.62884733 127.83396001 201.97574182 131.86350572 205.97265625 136.08203125 C207.00712891 136.93861328 207.00712891 136.93861328 208.0625 137.8125 C208.75472656 138.39644531 209.44695312 138.98039063 210.16015625 139.58203125 C214.65169997 143.04366686 219.54184127 142.39708827 225 142 C231.19741728 140.77783852 235.54951164 138.45048836 240 134 C241.04349839 132.36021682 242.05607981 130.69905634 243 129 C243.66 128.67 244.32 128.34 245 128 C245.185625 128.680625 245.37125 129.36125 245.5625 130.0625 C247.90060586 134.8403685 251.54884434 138.74331613 256.30859375 141.18359375 C264.13124816 143.55650343 272.8693441 142.92520233 280.09765625 139.15625 C282.79234283 137.51841175 285.39602457 135.77832468 288 134 C288.66 134 289.32 134 290 134 C291.22024994 135.47714466 292.43753734 136.95851761 293.5859375 138.4921875 C296.17740089 141.25546061 298.38808919 141.92760706 302.13671875 142.37109375 C309.98870004 142.51794048 315.83675049 142.14826993 322 137 C323.98739139 134.93234857 325.82355772 132.8332276 327.58984375 130.57421875 C328.05519531 130.05472656 328.52054687 129.53523437 329 129 C329.66 129 330.32 129 331 129 C332.296875 130.390625 332.296875 130.390625 333.75 132.25 C340.64442598 140.39198878 348.94509528 142.11108861 359.30078125 143.25390625 C371.83002311 143.64301314 383.56011166 139.14742529 393 131 C393.556875 130.2575 394.11375 129.515 394.6875 128.75 C395.3371875 127.88375 395.3371875 127.88375 396 127 C396.66 127 397.32 127 398 127 C398.680625 128.03125 399.36125 129.0625 400.0625 130.125 C405.2319008 137.54849998 412.4347366 140.69448958 421.09375 142.53125 C432.4995145 144.37088943 443.90275378 141.53719954 454 136 C455.35113205 135.02418241 456.68946944 134.02970259 458 133 C457.62488281 133.88558594 457.24976563 134.77117187 456.86328125 135.68359375 C453.9397684 142.71250592 451.33053879 149.75431186 449.1875 157.0625 C448.87776245 158.11425415 448.87776245 158.11425415 448.56176758 159.18725586 C446.33882302 166.97082947 443.87132838 176.48563947 446.90625 184.34765625 C449.79476611 189.30072074 453.42532739 193.00887081 459.11328125 194.5859375 C463.14507515 195.16424623 467.11949896 195.18425339 471.1875 195.1875 C472.00669922 195.19974609 472.82589844 195.21199219 473.66992188 195.22460938 C475.78126936 195.22982258 477.89221809 195.12276321 480 195 C482.16445578 193.25088881 482.16445578 193.25088881 482.20776367 191.16601562 C482.19463135 190.42029297 482.18149902 189.67457031 482.16796875 188.90625 C482.21940802 170.74818719 486.3721305 153.87463706 493 137 C493.66644531 137.48597656 494.33289063 137.97195312 495.01953125 138.47265625 C498.63744978 140.32666168 501.71316325 140.49850647 505.6875 140.4375 C506.40010986 140.42702637 507.11271973 140.41655273 507.84692383 140.40576172 C520.77226205 139.96314327 530.4229598 132.54387865 539.32421875 123.6875 C547.14150648 114.59548755 552.88306972 102.55373404 556 91 C556.5878125 89.1128125 556.5878125 89.1128125 557.1875 87.1875 C559.67391458 76.51929386 557.81303706 68.45283195 552.375 59.25 C546.83762388 54.00406473 538.9528326 50.61066957 531.265625 50.7109375 C524.50374932 51.57365957 517.25018414 53.54181444 512 58 C511.938125 57.13375 511.938125 57.13375 511.875 56.25 C510.5266105 52.78271271 508.1758638 51.79765875 505 50 C500.51958166 48.21542659 496.75026126 47.72905218 491.9375 47.75 C490.15666016 47.74226563 490.15666016 47.74226563 488.33984375 47.734375 C485.08254703 47.99343486 482.86557544 48.45217093 480 50 C477.19548539 56.49466541 476.90767059 64.03797344 476 71 C475.65388672 70.11248047 475.65388672 70.11248047 475.30078125 69.20703125 C471.80895434 60.74659687 467.35434387 56.5654522 459 53 C449.85321728 49.95107243 435.97349792 50.29030258 427.3125 54.4375 C419.59554382 59.1503155 412.47971756 64.78250163 407 72 C406.814375 71.01 406.62875 70.02 406.4375 69 C404.47602553 62.31745939 399.47530981 57.5341462 393.625 54 C384.31565016 49.77235948 370.52605561 50.76216357 361 54 C348.88671936 59.08458694 340.1635909 68.27376764 333 79 C332.67 79.33 332.34 79.66 332 80 C333.67042292 74.96395318 335.34284247 69.92857549 337.01708984 64.89379883 C337.58599455 63.18206591 338.15435983 61.47015362 338.72216797 59.75805664 C339.53991123 57.2926538 340.35961256 54.82790933 341.1796875 52.36328125 C341.43185028 51.60163162 341.68401306 50.83998199 341.94381714 50.05525208 C343.18912303 46.31894265 344.4982542 42.64315503 346 39 C349.13972648 30.14251475 351.24593305 19.80552507 347.7578125 10.7890625 C345.90654338 7.8517155 344.42840749 6.49823196 341.5 4.6875 C340.7265625 4.19636719 339.953125 3.70523437 339.15625 3.19921875 C334.68217231 0.7109183 330.48050011 0.81665735 325.5 0.8125 C324.72785156 0.80025391 323.95570313 0.78800781 323.16015625 0.77539062 C319.2517352 0.76523009 317.32358072 0.78427952 314 3 C313.3672309 6.05694064 313.3672309 6.05694064 313.125 9.75 C311.60183615 24.78819318 307.83121286 39.69529154 303 54 C302.46632813 53.7834375 301.93265625 53.566875 301.3828125 53.34375 C292.21811892 49.91888181 284.75570696 50.07991945 275.6640625 53.7421875 C264.34862275 59.08466785 256.46007871 67.4289621 250 78 C249.96261719 77.13117188 249.92523438 76.26234375 249.88671875 75.3671875 C249.41137899 67.03476108 248.90613289 61.44491057 242.5 55.6875 C236.28209179 50.49227406 227.93514503 51.28427408 220.21289062 51.72167969 C212.66647727 52.67080935 206.43220819 58.00824112 201 63 C200.938125 62.1646875 200.938125 62.1646875 200.875 61.3125 C199.30484354 57.16280078 195.67337033 54.9036823 191.90234375 52.8671875 C187.69841776 51.61110194 183.67518146 51.71054847 179.3125 51.75 C178.44560547 51.74226563 177.57871094 51.73453125 176.68554688 51.7265625 C175.44321289 51.73042969 175.44321289 51.73042969 174.17578125 51.734375 C173.42208252 51.73663086 172.66838379 51.73888672 171.8918457 51.74121094 C169.75797746 51.83885685 169.75797746 51.83885685 168 54 C167.33817423 56.39594951 167.33817423 56.39594951 166.88671875 59.20703125 C166.69335938 60.26245117 166.5 61.31787109 166.30078125 62.40527344 C166.09839844 63.5296582 165.89601563 64.65404297 165.6875 65.8125 C163.92702818 75.08903381 161.81282429 83.35368768 158 92 C157.05206674 94.43346154 156.11449248 96.8709846 155.1875 99.3125 C154.45833333 101.20833333 153.72916667 103.10416667 153 105 C149.9168649 103.80100302 146.93720508 102.52299523 144 101 C144.56847656 100.67128906 145.13695312 100.34257813 145.72265625 100.00390625 C153.16107897 95.42163917 159.33678071 89.54240149 162 81 C162.35274329 77.62185102 162.35274329 77.62185102 162.3125 74.0625 C162.32925781 72.87785156 162.34601563 71.69320312 162.36328125 70.47265625 C161.80161231 65.1035843 160.04136843 61.9734531 156.125 58.3125 C146.11301137 50.90362842 136.00913705 51.09103215 123.94140625 52.30859375 C111.12378629 54.56817418 101.71831756 62.77708528 93 72 C92.63648438 71.11248047 92.63648438 71.11248047 92.265625 70.20703125 C91.93046875 69.41683594 91.5953125 68.62664062 91.25 67.8125 C90.92515625 67.03519531 90.6003125 66.25789063 90.265625 65.45703125 C87.50620817 60.10001525 84.47784448 57.34499483 79.0625 54.75 C78.04285156 54.24984375 77.02320313 53.7496875 75.97265625 53.234375 C64.90006294 48.63655701 53.2650505 51.30088967 42.57421875 55.71484375 C38.04360813 57.97671157 34.02737472 60.94947787 30 64 C30.0309375 63.06414062 30.061875 62.12828125 30.09375 61.1640625 C29.97065769 57.00969701 28.9957013 55.84591623 26 53 C20.04837861 49.36560825 14.91478578 47.85572978 7.9375 47.8125 C6.89464844 47.79832031 5.85179687 47.78414062 4.77734375 47.76953125 C1.7876052 47.79204696 1.7876052 47.79204696 -1 50 C-1.91666727 52.1707797 -1.91666727 52.1707797 -2.625 54.75 C-4.32752586 59.73925533 -6.58426066 63.91947304 -9.4375 68.3125 C-9.80891113 68.88645508 -10.18032227 69.46041016 -10.56298828 70.05175781 C-17.25917075 80.12958538 -17.25917075 80.12958538 -21 82 C-20.71390869 81.32348389 -20.42781738 80.64696777 -20.13305664 79.94995117 C-3.89957079 46.56867539 -3.89957079 46.56867539 -1 11 C-4.54692757 5.53310511 -8.77913926 2.76282002 -15 1 C-26.49368268 -0.36823586 -26.49368268 -0.36823586 -37 3 Z " fill="#F4F4F4" transform="translate(182,15)"/>
<path d="M0 0 C2.54232342 -0.08152344 5.08199202 -0.14073716 7.625 -0.1875 C8.33785156 -0.21263672 9.05070312 -0.23777344 9.78515625 -0.26367188 C14.59923324 -0.32992064 17.83794702 0.31903794 22 3 C25.04983939 7.57475909 24.59965041 11.63162579 24 17 C22.69639005 22.32609494 20.94180498 27.45555347 19.125 32.625 C18.62476047 34.08690936 18.12525815 35.54907117 17.62646484 37.01147461 C14.18764338 47.00354916 10.39529893 56.83378291 6.37207031 66.60571289 C3.08689763 74.61348838 0.35823381 82.67171112 -2 91 C21.88717609 72.67576633 21.88717609 72.67576633 34 46 C47.7505745 45.14178106 47.7505745 45.14178106 52.375 47.9375 C54.82674575 50.15218128 55.53145041 51.97491196 55.8125 55.25 C55.32378835 60.93597207 52.51990308 64.67512949 49 69 C48.36964844 69.79277344 47.73929688 70.58554688 47.08984375 71.40234375 C40.49251005 79.20816101 31.5092828 87.86757093 22 92 C25.58626759 109.29626975 34.97370239 128.02457586 48.6484375 139.4765625 C52.4886858 141.964431 56.54416825 143.10697318 61 144 C61.66 143.34 62.32 142.68 63 142 C63.99 142 64.98 142 66 142 C65.44203567 149.81150056 63.61808428 155.91500195 57.6875 161.3125 C52.69269325 165.21270016 47.65073735 167.66109185 41.16015625 167.3359375 C29.84372605 165.57605866 21.9463058 158.26027081 15.3527832 149.28466797 C11.07986019 143.19890835 7.79655917 136.88458491 5 130 C4.319375 128.42798828 4.319375 128.42798828 3.625 126.82421875 C1.63801339 122.20108796 -0.0719183 117.95288344 -1 113 C-1.08564209 113.63091553 -1.17128418 114.26183105 -1.25952148 114.91186523 C-1.64783714 117.75435681 -2.04258081 120.59591869 -2.4375 123.4375 C-2.63956055 124.92733398 -2.63956055 124.92733398 -2.84570312 126.44726562 C-3.04389648 127.86362305 -3.04389648 127.86362305 -3.24609375 129.30859375 C-3.36654053 130.18314209 -3.4869873 131.05769043 -3.61108398 131.95874023 C-4 134 -4 134 -5 135 C-8.38752444 135.28048753 -11.78975327 135.2318666 -15.1875 135.25 C-16.60772461 135.2809375 -16.60772461 135.2809375 -18.05664062 135.3125 C-24.47073746 135.34830794 -28.96361541 134.74899016 -33.8984375 130.28125 C-34.38570313 129.6934375 -34.87296875 129.105625 -35.375 128.5 C-35.87773438 127.9121875 -36.38046875 127.324375 -36.8984375 126.71875 C-38 125 -38 125 -38 122 C-38.66 122 -39.32 122 -40 122 C-40.25007813 122.598125 -40.50015625 123.19625 -40.7578125 123.8125 C-44.33433683 130.11078184 -52.87773986 133.28704262 -59.4921875 135.30859375 C-70.82691213 137.54272099 -84.25494988 137.43983765 -94.453125 131.59375 C-101.0820416 126.94033835 -105.44264483 120.6720655 -108 113 C-108.78408903 106.69368392 -108.28642187 102.04649831 -104.5625 96.8203125 C-100.69579023 92.31559561 -95.99212057 87.6453428 -89.921875 86.6640625 C-82.74833333 86.53504197 -77.83303331 88.45027002 -72.5 93.25 C-70.51663662 96.88616619 -70.34266227 99.99552879 -71 104 C-71.82031939 106.48439587 -72.82438028 108.64876056 -74 111 C-70.20452079 110.03223902 -70.20452079 110.03223902 -67 108 C-65.50821648 99.42224477 -68.50354223 93.03456885 -72.2421875 85.58203125 C-76.08410283 77.75306156 -78.99227821 69.24247172 -76.23828125 60.61328125 C-72.1583362 50.85689091 -65.96604776 46.27814012 -56.54296875 41.84375 C-49.63889885 39.5529987 -41.6917593 40.44382827 -34.9765625 43.0078125 C-31.27870845 44.86404754 -27.88744207 47.22511586 -26 51 C-25.10754724 58.60779401 -26.84988964 64.10913359 -30 71 C-33.96 70.67 -37.92 70.34 -42 70 C-40.40517114 75.7413839 -38.70763828 80.9131876 -35.91796875 86.171875 C-34.65240023 88.69224125 -33.80890237 91.30365876 -33 94 C-31.02 92.515 -31.02 92.515 -29 91 C-28.67 91.33 -28.34 91.66 -28 92 C-27.8141333 91.46221924 -27.6282666 90.92443848 -27.43676758 90.37036133 C-26.56429624 87.85027693 -25.68840066 85.33139443 -24.8125 82.8125 C-24.52052734 81.96751953 -24.22855469 81.12253906 -23.92773438 80.25195312 C-22.22208024 75.35507512 -20.43086661 70.50552536 -18.54296875 65.67578125 C-15.95180654 58.98256214 -13.6811301 52.21153495 -11.5 45.375 C-11.11126709 44.15876953 -10.72253418 42.94253906 -10.32202148 41.68945312 C-5.98642215 27.98494126 -1.90982549 14.28093389 0 0 Z " fill="#3F3C3C" transform="translate(151,22)"/>
<path d="M0 0 C15.4442116 -0.90493427 15.4442116 -0.90493427 21.6796875 3.7109375 C23.36457588 5.35594686 23.95561863 6.51915988 24.17236328 8.86743164 C24.22934213 14.40468479 23.47143257 19.15002473 21.875 24.4375 C21.6469165 25.22133057 21.41883301 26.00516113 21.18383789 26.81274414 C18.05833522 37.40761447 14.45118536 47.8371203 10.81947327 58.26673889 C9.73367983 61.3881698 8.65261188 64.51123085 7.57156372 67.63430786 C6.76576401 69.95460754 5.95226877 72.27211053 5.13842773 74.58959961 C1.83446696 84.07158602 -1.30394346 93.28264324 -1.25 103.4375 C-1.25515625 104.42621094 -1.2603125 105.41492188 -1.265625 106.43359375 C-1.17666606 109.23993448 -1.17666606 109.23993448 1 112 C3.56282742 112.72965366 3.56282742 112.72965366 6 113 C4.69834823 118.92974694 1.6072254 122.29269973 -3 126 C-8.43387044 128.90648884 -14.98380659 128.64217795 -21 128 C-24.57953477 126.39286194 -25.56625812 125.13412835 -26.953125 121.5078125 C-27.72867459 119.01900335 -28.40442506 116.53724607 -29 114 C-29.50789063 114.60328125 -30.01578125 115.2065625 -30.5390625 115.828125 C-39.86343677 126.65417752 -39.86343677 126.65417752 -47 128 C-58.91947686 128.87600974 -58.91947686 128.87600974 -64.5625 126.5 C-71.62139628 119.26010638 -73.28067346 112.93771749 -73.2421875 102.97827148 C-72.9288691 86.57801125 -65.39657172 70.96971284 -53.80859375 59.5 C-45.74077886 52.31863487 -37.53574772 48.48416818 -26.6875 48.67578125 C-21.10681371 49.34903265 -17.38225997 52.6967414 -13 56 C-12.91363281 55.45214844 -12.82726562 54.90429688 -12.73828125 54.33984375 C-11.53148015 47.53082839 -9.47621796 41.13103173 -7.21875 34.61328125 C-4.64839589 26.99284039 -3.14483964 19.48724 -1.875 11.5625 C-1.69324219 10.44939453 -1.51148438 9.33628906 -1.32421875 8.18945312 C-0.87910692 5.46021481 -0.43780997 2.73041748 0 0 Z " fill="#D39894" transform="translate(501,22)"/>
<path d="M0 0 C2.54283234 -0.10871967 5.08095088 -0.18762401 7.625 -0.25 C8.33785156 -0.28351563 9.05070313 -0.31703125 9.78515625 -0.3515625 C15.14221553 -0.44985717 17.81598483 0.64750835 22 4 C21.9278125 4.60328125 21.855625 5.2065625 21.78125 5.828125 C21.64203125 7.02695313 21.64203125 7.02695313 21.5 8.25 C21.36078125 9.43335937 21.36078125 9.43335937 21.21875 10.640625 C20.93845381 13.26890397 20.93845381 13.26890397 21 17 C21.43828125 16.49210937 21.8765625 15.98421875 22.328125 15.4609375 C29.09682713 8.11441934 36.91013476 2.82770446 47.125 2.25 C53.36885675 2.58639701 58.30723174 4.89494086 63 9 C66.59833599 13.40153599 66.50615752 17.61924626 66.4375 23.0625 C66.42847656 23.91231445 66.41945313 24.76212891 66.41015625 25.63769531 C66.21692186 32.6988019 65.00827191 38.56705695 62 45 C61.73155273 45.5873291 61.46310547 46.1746582 61.18652344 46.77978516 C55.32247246 59.38781946 47.51884358 70.24671557 35 77 C34.08541016 77.50660156 34.08541016 77.50660156 33.15234375 78.0234375 C26.87756759 80.92768634 19.74733224 80.88043481 13 80 C9.28133683 78.35672822 6.86101272 75.86101272 4 73 C0.38130662 83.31327614 -2.79532021 93.55142642 -5.140625 104.23046875 C-6 108 -6 108 -7.0390625 111.3359375 C-8.26652843 116.01627508 -8.70250339 120.62727219 -9.125 125.4375 C-9.21136719 126.35982422 -9.29773438 127.28214844 -9.38671875 128.23242188 C-9.5970654 130.48780541 -9.80134402 132.74356186 -10 135 C-12.54283234 135.10871967 -15.08095088 135.18762401 -17.625 135.25 C-18.33785156 135.28351563 -19.05070313 135.31703125 -19.78515625 135.3515625 C-24.98264845 135.44692933 -27.92218817 134.50226482 -32 131 C-35.23171968 125.73904492 -34.57991876 119.92579931 -33.41650391 114.05615234 C-32.61850488 110.9090784 -31.73540606 107.80015833 -30.8125 104.6875 C-30.52052734 103.64916016 -30.22855469 102.61082031 -29.92773438 101.54101562 C-28.38932547 96.19793954 -26.65937275 91.00383599 -24.6171875 85.83203125 C-21.41278825 77.69064639 -18.88509986 69.35680862 -16.3125 61 C-15.58366815 58.64174461 -14.85354568 56.28390564 -14.12113953 53.92675781 C-13.67031937 52.47498454 -13.22162892 51.02254753 -12.77546692 49.56933594 C-11.90412372 46.75632228 -10.99714464 43.99286192 -9.90307617 41.2578125 C-8.80536483 38.51338578 -8.23771816 35.72180183 -7.62890625 32.8359375 C-6.84678959 29.30912573 -5.95374525 25.81286781 -5.0625 22.3125 C-3.18699982 14.9113798 -1.54241235 7.4783629 0 0 Z " fill="#D39994" transform="translate(667,68)"/>
<path d="M0 0 C16.13533835 -0.74758324 16.13533835 -0.74758324 22 4 C23.18297571 6.36595143 23.10136311 7.80776319 23.0625 10.4375 C23.05347656 11.21996094 23.04445313 12.00242187 23.03515625 12.80859375 C23.02355469 13.53175781 23.01195312 14.25492188 23 15 C23 15.99 23 16.98 23 18 C23.38929688 17.50371094 23.77859375 17.00742188 24.1796875 16.49609375 C31.04601832 8.15840633 39.92571406 0.90534017 50.9375 -0.50390625 C62.93864035 -0.90986141 62.93864035 -0.90986141 67.5 2.0625 C71.20652636 6.258014 70.87547796 11.388604 70.62890625 16.71875 C69.57591062 25.58781694 65.99480514 33.99485256 62.7109375 42.234375 C59.96656539 49.22363922 58.56365025 55.69095076 61 63 C62.98 63 64.96 63 67 63 C65.1933523 68.9619374 61.32912738 73.23895247 56.4375 76.9375 C51.07234751 78.59581986 45.54941332 78.88207195 40 78 C36.82196608 75.89472014 35.12055823 74.18083734 33 71 C31.02788787 57.19521508 35.26997259 43.96620044 41.68359375 31.80859375 C43.16315668 28.65190015 43.52551583 26.15405368 43.75 22.6875 C43.82734375 21.63949219 43.9046875 20.59148437 43.984375 19.51171875 C43.98953125 18.68285156 43.9946875 17.85398437 44 17 C42.88202102 15.65127929 42.88202102 15.65127929 40 15.9375 C33.0857468 17.12280055 28.61102308 22.82711598 24.63671875 28.1875 C14.46671965 43.14100807 7.87504569 60.14897003 5 78 C2.77110504 78.05428973 0.54182529 78.09292338 -1.6875 78.125 C-2.92886719 78.14820313 -4.17023438 78.17140625 -5.44921875 78.1953125 C-9.61015503 77.96643812 -12.5197686 77.21590437 -15.75 74.5625 C-18.70447128 70.8694109 -18.5106495 66.32826865 -18.47265625 61.8125 C-17.55760767 54.43161224 -14.61240471 47.61442358 -12.00097656 40.68945312 C-10.35220614 36.25948849 -8.81953117 31.79239527 -7.3125 27.3125 C-7.02165527 26.44802246 -6.73081055 25.58354492 -6.43115234 24.69287109 C-3.75939981 16.57667722 -1.7630488 8.35531821 0 0 Z " fill="#D39894" transform="translate(355,72)"/>
<path d="M0 0 C3.03850886 2.47251211 4.86977677 4.22257804 5.625 8.1875 C6.25470068 14.58945695 5.18210894 18.81718943 1.625 24.1875 C-1.402472 27.60310944 -4.71667539 30.46502587 -8.375 33.1875 C-8.8803125 33.57808594 -9.385625 33.96867187 -9.90625 34.37109375 C-19.0352476 40.79742758 -31.48484937 43.43355747 -42.375 45.1875 C-42.11879316 46.7940676 -41.84444129 48.3977483 -41.5625 50 C-41.41167969 50.89332031 -41.26085937 51.78664062 -41.10546875 52.70703125 C-40.287384 55.48501958 -39.7558095 56.55494491 -37.375 58.1875 C-32.18160334 59.33379025 -27.28784386 59.36527722 -22.69140625 56.53515625 C-19.68873071 53.88747683 -17.08629525 51.28953345 -14.91015625 47.91796875 C-13.375 46.1875 -13.375 46.1875 -11.21875 45.91015625 C-10.4453125 46.02230469 -9.671875 46.13445312 -8.875 46.25 C-7.71484375 46.39115234 -7.71484375 46.39115234 -6.53125 46.53515625 C-3.98002597 47.30699395 -2.92514249 48.02324355 -1.375 50.1875 C-0.8270124 54.06094659 -1.57246687 57.74808114 -3.47265625 61.15625 C-7.23045995 65.92939342 -11.88680227 68.73130659 -17.375 71.1875 C-18.07882812 71.50847656 -18.78265625 71.82945312 -19.5078125 72.16015625 C-28.7320659 75.61523374 -42.48835396 76.34862232 -51.6875 72.5 C-53.66015625 71.3671875 -53.66015625 71.3671875 -55.375 70.1875 C-56.4475 69.506875 -57.52 68.82625 -58.625 68.125 C-63.55452416 63.58102521 -65.95377647 57.34850789 -66.82421875 50.81640625 C-67.28959818 36.42173902 -62.40926172 23.73518485 -53 13 C-39.85982373 -0.98443801 -18.16883296 -12.71164752 0 0 Z " fill="#D19792" transform="translate(333.375,75.8125)"/>
<path d="M0 0 C1.65161581 0.75836443 3.29617138 1.53212076 4.9375 2.3125 C5.85402344 2.74175781 6.77054688 3.17101562 7.71484375 3.61328125 C10 5 10 5 11 8 C11.61617187 8.29648438 12.23234375 8.59296875 12.8671875 8.8984375 C18.00582303 11.55245805 20.47595624 18.57078976 22.375 23.75 C24.89708936 36.46338921 22.42150463 48.48316558 18.0625 60.375 C17.68327393 61.41116455 17.68327393 61.41116455 17.29638672 62.46826172 C15.91935915 66.07291183 14.45239017 69.02639339 12 72 C10.14511735 75.18807955 8.33395159 78.39017535 6.5625 81.625 C4.68068372 84.48536075 2.44972891 86.60642533 0 89 C-0.83917969 89.825 -1.67835938 90.65 -2.54296875 91.5 C-15.71936743 103.95627054 -27.19990445 106.46167395 -45 106 C-50.60406653 118.40048764 -53.36638143 130.84440975 -53.7265625 144.37890625 C-54.01510176 148.19999044 -54.69241832 151.39973287 -56 155 C-63.47979412 161.17896036 -71.75744657 160.50935916 -81 160 C-87.91440468 158.91050944 -94.6330582 156.65955119 -100 152 C-100 151.34 -100 150.68 -100 150 C-100.598125 149.835 -101.19625 149.67 -101.8125 149.5 C-105.29960973 147.10883904 -106.17205129 143.97175394 -107 140 C-107.8908211 130.29727291 -106.38896221 121.38255625 -104 112 C-103.66617599 110.66678943 -103.33274242 109.33348092 -103 108 C-103.58789307 108.02618408 -104.17578613 108.05236816 -104.78149414 108.0793457 C-118.6450954 108.61334107 -132.57153942 109.1159841 -144.0625 100.0625 C-146.82158589 97.62331973 -146.82158589 97.62331973 -150 98.4375 C-153.04488454 99.97357933 -153.04488454 99.97357933 -156 101.875 C-167.74585731 108.68196742 -183.20210327 110.45571165 -196.3046875 106.9765625 C-201.02998018 105.53158251 -205.53148752 103.91077019 -209.74609375 101.296875 C-211.98088525 99.67983377 -211.98088525 99.67983377 -214.75 100.5625 C-216.54801757 101.357777 -218.34488356 102.15573353 -220.13671875 102.96484375 C-229.20321913 107.04399927 -237.34252553 109.74565301 -247.16796875 106.22265625 C-247.81378906 105.94292969 -248.45960938 105.66320312 -249.125 105.375 C-254.08050506 103.31189177 -258.92785014 103.78764334 -263.890625 105.74609375 C-264.50421875 106.01550781 -265.1178125 106.28492188 -265.75 106.5625 C-274.55535874 110.09163188 -283.80138091 108.22773349 -292.44140625 105.16796875 C-295 104 -295 104 -297.17578125 102.328125 C-298.07876953 101.67070312 -298.07876953 101.67070312 -299 101 C-301.81117748 101.51527389 -301.81117748 101.51527389 -305 103 C-306.68542678 103.69256702 -308.37308989 104.37970721 -310.0625 105.0625 C-310.87847656 105.40410156 -311.69445312 105.74570313 -312.53515625 106.09765625 C-320.92497954 109.16904956 -328.59584087 108.8053759 -336.7109375 105.1875 C-343.60698945 101.61002595 -346.67779561 96.74730892 -350 90 C-350.19335938 90.67546875 -350.38671875 91.3509375 -350.5859375 92.046875 C-350.97652344 93.38492188 -350.97652344 93.38492188 -351.375 94.75 C-351.63023437 95.63171875 -351.88546875 96.5134375 -352.1484375 97.421875 C-353.67439182 102.04173669 -355.06953602 104.87842635 -359.56640625 107.234375 C-369.46624573 110.34893124 -380.70255025 108.01145379 -390 104 C-391.33390276 103.00075968 -392.66735927 102.0009228 -394 101 C-398.3251867 101.20117147 -402.29874492 102.67689824 -406.36328125 104.0859375 C-407.23339844 104.38757813 -408.10351562 104.68921875 -409 105 C-409.63953613 105.2484668 -410.27907227 105.49693359 -410.93798828 105.75292969 C-416.7855716 107.91144225 -422.03563429 108.54406946 -428.25 108.5 C-429.1673291 108.49572998 -430.0846582 108.49145996 -431.02978516 108.48706055 C-440.51955944 108.25077636 -448.33658645 105.94593327 -456 100.125 C-458.72374591 97.70789173 -458.72374591 97.70789173 -461.4453125 98.22265625 C-463.94921624 98.98454745 -465.69070137 99.89577619 -467.875 101.3125 C-477.59081033 106.88979545 -488.94296508 108.58819237 -500 109 C-500.0825 109.99 -500.165 110.98 -500.25 112 C-501.62918258 121.05542245 -507.33783348 127.98702223 -514 134 C-522.79975211 139.35575967 -532.50251207 140.41658246 -542.51171875 138.234375 C-551.57795384 135.4017999 -557.54254619 130.8686858 -564 124 C-564.53238281 123.45085937 -565.06476563 122.90171875 -565.61328125 122.3359375 C-568.99341423 118.58953624 -574 112.2462287 -574 107 C-574.8499353 107.23904053 -574.8499353 107.23904053 -575.71704102 107.48291016 C-586.74712608 109.98122265 -599.2390842 108.9880127 -609.40625 104.19140625 C-613.40206051 102.35598124 -615.73016492 101.61016721 -620.015625 102.92578125 C-621.08296875 103.38339844 -622.1503125 103.84101563 -623.25 104.3125 C-639.3637221 110.80124715 -655.34862698 110.61295852 -671.6875 104.375 C-682.0098334 99.37541679 -688.19866261 91.07004198 -692.3125 80.6875 C-694.04734649 71.38241427 -693.798908 62.99532679 -688.67578125 54.91015625 C-683.8769044 48.14638494 -679.23335201 43.81133744 -671 42 C-672 44 -672 44 -675.125 45.125 C-681.1550551 47.58168911 -685.30781759 52.94287419 -687.875 58.8125 C-690.96190163 67.55872128 -690.82456142 74.65327103 -687.3203125 83.328125 C-683.47311341 91.11358115 -677.93878715 97.30608484 -670 101 C-655.85690699 105.50403116 -637.65619061 104.55190287 -624 99 C-622.60418626 98.24563595 -621.2241077 97.46002666 -619.875 96.625 C-617 95 -617 95 -614.9375 95.5 C-614.298125 95.995 -613.65875 96.49 -613 97 C-608.02900959 100.34780987 -604.90344259 102.12535221 -598.88671875 102.1328125 C-597.88576172 102.13410156 -596.88480469 102.13539063 -595.85351562 102.13671875 C-594.28633789 102.13091797 -594.28633789 102.13091797 -592.6875 102.125 C-591.65431641 102.12886719 -590.62113281 102.13273437 -589.55664062 102.13671875 C-584.59714403 102.13035634 -579.87185853 102.05654763 -575 101 C-574.46632813 101.95519531 -573.93265625 102.91039062 -573.3828125 103.89453125 C-565.64065959 117.46134685 -557.64186096 128.71027419 -542 133.62890625 C-533.41891614 135.22109954 -525.64939525 134.15453393 -518 130 C-516.2925002 128.71937515 -514.60628069 127.40549561 -513 126 C-512.34 126 -511.68 126 -511 126 C-510.60361328 125.17435547 -510.60361328 125.17435547 -510.19921875 124.33203125 C-509.34554555 122.67195666 -508.42319458 121.04644572 -507.45703125 119.44921875 C-506.91433594 118.53785156 -506.37164062 117.62648438 -505.8125 116.6875 C-505.26207031 115.78386719 -504.71164062 114.88023437 -504.14453125 113.94921875 C-502.70996073 110.25262917 -503.17791412 107.8253129 -504 104 C-502.75605469 103.90203125 -501.51210938 103.8040625 -500.23046875 103.703125 C-491.77539412 102.96731004 -483.98828094 102.26129852 -476.12890625 98.8046875 C-474 98 -474 98 -470 98 C-470 97.34 -470 96.68 -470 96 C-467.03 94.35 -464.06 92.7 -461 91 C-459.948125 91.928125 -458.89625 92.85625 -457.8125 93.8125 C-449.69814974 100.71212717 -441.36633919 103.56581118 -430.75 103.375 C-429.92298584 103.36484863 -429.09597168 103.35469727 -428.24389648 103.34423828 C-416.18568818 103.04205103 -406.51784303 99.85588017 -396 94 C-395.50371094 94.40992188 -395.00742187 94.81984375 -394.49609375 95.2421875 C-393.81675781 95.78101563 -393.13742187 96.31984375 -392.4375 96.875 C-391.77621094 97.40867187 -391.11492187 97.94234375 -390.43359375 98.4921875 C-384.43307554 102.21000456 -378.20435381 102.31402519 -371.375 102.25 C-370.54226563 102.25773437 -369.70953125 102.26546875 -368.8515625 102.2734375 C-362.65203126 102.29823099 -362.65203126 102.29823099 -357 100 C-355.7846433 97.93380379 -355.7846433 97.93380379 -355.25 95.4375 C-355.01925781 94.54933594 -354.78851563 93.66117187 -354.55078125 92.74609375 C-353.88766053 89.43989614 -353.50686436 86.17709225 -353.30859375 82.8125 C-353 81 -353 81 -351 79 C-350.76925781 79.79664063 -350.53851563 80.59328125 -350.30078125 81.4140625 C-347.44665523 90.68715177 -344.67247347 96.01794077 -336 101 C-327.43629584 103.80503108 -317.14206704 102.54645388 -309 99 C-307.85190722 98.28585158 -306.72319499 97.53872857 -305.625 96.75 C-303 95 -303 95 -301.08984375 95.234375 C-298.79539361 96.0749586 -296.97286583 97.15093286 -294.9375 98.5 C-286.90363159 103.80451196 -274.96785645 103.05289828 -265.6875 101.1875 C-262.37160255 100.11966862 -260.67254686 99.07864756 -258 97 C-255.3264728 97.17248563 -253.89652014 98.0653557 -251.625 99.5 C-245.08757848 103.23566944 -235.37084115 103.18147387 -228.2109375 101.24609375 C-223.3864646 99.38772428 -219.15630756 97.06254241 -215 94 C-214.46761719 94.26683594 -213.93523437 94.53367187 -213.38671875 94.80859375 C-212.59910156 95.20175781 -211.81148437 95.59492188 -211 96 C-210.03707031 96.48597656 -209.07414062 96.97195312 -208.08203125 97.47265625 C-201.61207001 100.61874254 -196.21027789 102.90823283 -189 103 C-188.27039063 103.06058594 -187.54078125 103.12117188 -186.7890625 103.18359375 C-175.09988889 103.8243624 -163.55172785 99.84068785 -153.453125 94.26953125 C-151.24098934 93.12471582 -149.46761581 92.30912989 -147 92 C-145.64175118 93.30794331 -144.31543863 94.64900897 -143 96 C-130.23910732 104.64447569 -114.77544383 104.44950992 -100 102 C-100.40447748 106.93462525 -101.03337038 111.28999226 -102.5625 116 C-104.92873341 124.30524499 -105.9661639 135.56866867 -102.5625 143.6875 C-98.43915546 150.19419616 -91.24382366 153.36381806 -84 155 C-80.80701319 155.31196846 -77.64416166 155.36996204 -74.4375 155.375 C-73.61314453 155.39949219 -72.78878906 155.42398438 -71.93945312 155.44921875 C-66.46853736 155.47545815 -63.30997341 154.67908362 -59 151 C-56.45593026 147.18389539 -56.752161 144.04692036 -56.6875 139.625 C-56.26199402 126.30368827 -52.69912999 113.73188927 -49 101 C-48.1028125 101.04640625 -47.205625 101.0928125 -46.28125 101.140625 C-31.238384 101.57574922 -18.61335294 99.32514909 -7 89 C-6.01966797 88.14728516 -6.01966797 88.14728516 -5.01953125 87.27734375 C3.42539941 79.39168002 8.65854372 69.57931791 13 59 C13.48984375 57.84628906 13.9796875 56.69257812 14.484375 55.50390625 C19.26982475 43.01603316 19.82002835 29.84918627 16 17 C15.0436126 15.30792999 14.05589069 13.63183107 13 12 C13 11.34 13 10.68 13 10 C12.43796875 9.731875 11.8759375 9.46375 11.296875 9.1875 C8.84449354 7.9196021 6.56072317 6.51027658 4.25 5 C3.45078125 4.484375 2.6515625 3.96875 1.828125 3.4375 C1.22484375 2.963125 0.6215625 2.48875 0 2 C0 1.34 0 0.68 0 0 Z " fill="#C3C1C0" transform="translate(727,62)"/>
<path d="M0 0 C3.50611498 2.47455394 7.05368898 5.10737797 9 9 C9.5671574 15.12715944 10.0317418 21.22297567 6.359375 26.4296875 C-4.43764586 38.90210814 -22.76618348 46.48987753 -39 48 C-38.53428232 52.75032037 -37.85175998 56.12160643 -35 60 C-30.96782219 62.01608891 -26.09977602 61.59613894 -21.83984375 60.38671875 C-17.66152111 58.55920576 -15.47453291 56.53541419 -12.9375 52.75 C-10.42418503 49.08930211 -10.42418503 49.08930211 -6.4375 48.25 C-2.44948493 49.12011238 -0.64357264 49.87577778 2 53 C2.70507598 57.23045589 2.35227081 59.34764666 0.3125 63.125 C-6.17725111 71.19333921 -12.77019986 75.17065261 -23 77 C-26.19389754 77.26270153 -29.35935559 77.28067656 -32.5625 77.25 C-33.37396484 77.25773437 -34.18542969 77.26546875 -35.02148438 77.2734375 C-43.73676491 77.245301 -49.62138081 75.39264994 -55.9765625 69.30859375 C-62.38371673 61.9985008 -62.76856814 53.50536724 -62.37890625 44.1875 C-61.44424654 31.22532266 -54.58072113 19.64285532 -45.22265625 10.84375 C-32.82834996 0.56235708 -15.93967304 -6.81863791 0 0 Z " fill="#D19692" transform="translate(259,73)"/>
<path d="M0 0 C0.89396484 -0.01546875 1.78792969 -0.0309375 2.70898438 -0.046875 C10.41739835 -0.00176358 15.59684043 2.07360328 21.4375 7.0625 C24.22181925 11.84804871 24.187081 16.07934585 23.4375 21.5 C20.65837797 30.27828449 13.23935564 36.3204861 5.5859375 40.9296875 C-3.48828951 45.45554266 -13.40091679 48.69541506 -23.5625 48.5 C-23.30529326 50.08560393 -23.03111201 51.66845924 -22.75 53.25 C-22.59917969 54.13171875 -22.44835937 55.0134375 -22.29296875 55.921875 C-21.48476252 58.77436759 -20.64560895 60.39272505 -18.5625 62.5 C-13.15880487 63.97570791 -7.54402091 62.29236802 -2.6484375 59.921875 C0.93501391 57.47922273 3.17908672 54.14888734 5.4375 50.5 C13.67177332 51.29175705 13.67177332 51.29175705 16.4375 54.5 C17.27113421 58.48291898 16.37657213 61.06225518 14.4375 64.5 C10.07007745 70.97071386 2.92890784 76.00992159 -4.62109375 78.05859375 C-8.89476214 78.69992779 -13.1214946 78.72472325 -17.4375 78.75 C-18.31019531 78.770625 -19.18289063 78.79125 -20.08203125 78.8125 C-28.58375628 78.8636382 -34.4839825 76.48437751 -40.76171875 70.62109375 C-46.82247216 63.48228876 -47.34166568 54.36440479 -46.9453125 45.3671875 C-45.49818024 30.74819832 -36.22070905 18.22935904 -25.5234375 8.6796875 C-17.58911812 2.3891315 -10.0891852 -0.17533703 0 0 Z " fill="#D19692" transform="translate(627.5625,71.5)"/>
<path d="M0 0 C3.36350532 2.68917938 5.96251138 5.06566102 6.515625 9.46484375 C6.61822975 17.55009827 5.80614392 21.8078518 0.40234375 27.74609375 C-10.64329355 38.52433201 -25.64895734 43.97059623 -40.8203125 44.79296875 C-40.62956212 49.17068988 -40.25969923 52.85688398 -38.3828125 56.85546875 C-34.41269354 59.85726601 -30.62159381 59.37256878 -25.8203125 58.79296875 C-20.25003937 57.40040047 -16.10247681 53.5960123 -12.8203125 48.98046875 C-10.8203125 46.79296875 -10.8203125 46.79296875 -7.8203125 46.29296875 C-4.43032555 46.85796658 -2.99830588 47.11236151 -0.8203125 49.79296875 C-0.14416849 54.86404884 -0.42420735 58.63021187 -3.3046875 63.0625 C-9.33711677 69.95004167 -17.67774147 74.20420628 -26.75732422 74.95263672 C-36.96696957 75.51892545 -47.29774443 75.64105795 -55.6953125 69.04296875 C-61.25529347 63.7583642 -63.52352478 58.00638136 -64.05859375 50.41015625 C-64.22355236 42.09276969 -63.46276252 35.38424309 -59.8203125 27.79296875 C-59.39621094 26.87902344 -58.97210937 25.96507813 -58.53515625 25.0234375 C-51.43163211 10.87575014 -40.7117476 1.80821891 -25.8203125 -3.20703125 C-17.33828668 -5.74827311 -7.45138821 -4.94094197 0 0 Z " fill="#D19591" transform="translate(575.8203125,75.20703125)"/>
<path d="M0 0 C2.54232342 -0.08152344 5.08199202 -0.14073716 7.625 -0.1875 C8.33785156 -0.21263672 9.05070312 -0.23777344 9.78515625 -0.26367188 C14.59923324 -0.32992064 17.83794702 0.31903794 22 3 C25.04983939 7.57475909 24.59965041 11.63162579 24 17 C22.69639431 22.32607751 20.94197846 27.45562597 19.125 32.625 C18.62404406 34.08837957 18.12380922 35.55200618 17.62426758 37.01586914 C14.19990237 46.96203286 10.43517959 56.75292667 6.43579102 66.48266602 C3.11604558 74.57324689 0.28498008 82.75546017 -2.35742188 91.08789062 C-3.02659752 93.07914581 -3.78541215 95.01965681 -4.55859375 96.97265625 C-6.10513313 101.04267951 -6.93128451 105.08653232 -7.625 109.375 C-7.74979736 110.11161865 -7.87459473 110.8482373 -8.00317383 111.60717773 C-8.90430003 117.0563901 -9.56290169 122.49256128 -10 128 C-12.72977064 128.08126109 -15.4571017 128.14061663 -18.1875 128.1875 C-18.95642578 128.21263672 -19.72535156 128.23777344 -20.51757812 128.26367188 C-25.16229839 128.32347514 -28.28625625 128.11227113 -32 125 C-35.38180997 119.50194708 -34.70946644 113.04918574 -33.29345703 106.96337891 C-32.30117599 103.71093062 -31.2076501 100.51428915 -30.0625 97.3125 C-29.65644531 96.13550537 -29.25039062 94.95851074 -28.83203125 93.74584961 C-25.84096437 85.15172515 -22.62987977 76.64415731 -19.38598633 68.14306641 C-11.11284476 46.2604357 -3.1143545 23.28793441 0 0 Z " fill="#D59A96" transform="translate(151,22)"/>
<path d="M0 0 C13.7505745 -0.85821894 13.7505745 -0.85821894 18.375 1.9375 C20.82674575 4.15218128 21.53145041 5.97491196 21.8125 9.25 C21.32378835 14.93597207 18.51990308 18.67512949 15 23 C14.36964844 23.79277344 13.73929688 24.58554688 13.08984375 25.40234375 C6.49251005 33.20816101 -2.4907172 41.86757093 -12 46 C-8.35424111 63.5831913 1.68644982 84.79096655 17 95 C19.94822992 96.31929923 22.85226789 97.28562108 26 98 C25.32826191 103.70977378 22.65530651 107.50618681 18.4375 111.3125 C14.16256431 114.27207086 10.05389575 114.49725271 5 114 C-7.18155361 111.1083041 -13.56774115 101.00873453 -19.921875 90.9609375 C-26.89728495 78.76940242 -35.34720784 59.15227435 -34.9375 44.8125 C-33.46323226 41.96224905 -31.18081561 40.68280517 -28.5625 38.875 C-15.6543832 29.6000072 -2.84838536 16.25255174 0 0 Z " fill="#D39995" transform="translate(185,68)"/>
<path d="M0 0 C2.25668874 1.66282328 3.05264349 2.52498684 3.73828125 5.2578125 C3.86960682 9.44640687 3.2356758 12.39077022 1.1875 16.0625 C0.17429688 15.88460937 0.17429688 15.88460937 -0.859375 15.703125 C-6.35952544 14.78390229 -6.35952544 14.78390229 -11.4375 16.5625 C-13.3076064 19.96269346 -13.11798973 22.20770194 -12.8125 26.0625 C-11.40216351 29.36539173 -11.40216351 29.36539173 -9.4375 32.5 C-3.95077228 42.25418261 -1.80237119 52.03262447 -4.3125 63.30859375 C-7.45961121 71.3373036 -13.18074075 75.7141288 -20.8125 79.0625 C-30.76677352 82.84434014 -44.94748342 82.60853824 -54.87109375 78.96484375 C-60.61243351 76.29633372 -64.44467712 71.89471948 -66.8125 66.0625 C-67.6925372 60.71399803 -67.52512126 56.51413591 -65.125 51.625 C-60.98080902 47.03278838 -57.77824486 44.34228725 -51.5 43.75 C-47.09426229 44.1233676 -45.11378081 45.15422881 -41.8125 48.0625 C-40.75 50.5 -40.75 50.5 -40.8125 53.0625 C-41.7998454 54.73669438 -42.80062105 56.40301852 -43.8125 58.0625 C-44.19152038 61.22100315 -44.33063279 63.14814801 -42.75 65.9375 C-39.68730351 67.7158399 -37.28173068 67.42138593 -33.8125 67.0625 C-30.46742803 65.69406147 -29.07099138 64.41577155 -26.9375 61.5 C-23.83024378 52.00560598 -28.44838501 42.56309708 -32.1875 33.86328125 C-35.09494647 26.88375776 -37.2920969 20.66170966 -35.8125 13.0625 C-33.06622483 6.40418388 -28.69401849 2.50325925 -22.3125 -0.6875 C-15.21747376 -3.10625895 -6.76999082 -3.47518179 0 0 Z " fill="#D39894" transform="translate(115.8125,69.9375)"/>
<path d="M0 0 C2.90822143 4.36233215 2.47672428 8.27653553 1.60546875 13.25390625 C-1.48703634 25.36455522 -9.48936012 38.99290675 -20 46 C-22.9375 46.4375 -22.9375 46.4375 -26 46 C-29.16178478 43.3374444 -29.90742263 41.57603699 -30.5625 37.5 C-29.84753324 25.56899226 -22.06655049 12.39912131 -13.93359375 3.8203125 C-8.88916166 -0.58171801 -6.56552048 -1.40689724 0 0 Z " fill="#3F3B3B" transform="translate(707,87)"/>
<path d="M0 0 C3.51100213 3.78370132 3.56323215 6.75333134 3.41015625 11.73828125 C1.68794202 25.43398493 -4.79993909 37.71944698 -15.0078125 46.953125 C-17 48 -17 48 -19.5546875 47.859375 C-22.24859824 46.9126332 -23.39418251 46.35485696 -25 44 C-27.37037428 31.89087867 -22.12765241 19.29390819 -15.5625 9.3125 C-11.8632984 4.47005729 -6.74494448 -1.68623612 0 0 Z " fill="#3F3B3B" transform="translate(478,87)"/>
<path d="M0 0 C2 1.1875 2 1.1875 3 3 C2.87785936 7.51920364 0.80231688 10.56716183 -2 14 C-7.96179628 18.90327327 -16.08843874 24 -24 24 C-23.62662329 16.71915419 -19.17823422 11.39074487 -14.4375 6.1875 C-13.2309375 5.1046875 -13.2309375 5.1046875 -12 4 C-11.21625 3.236875 -10.4325 2.47375 -9.625 1.6875 C-6.18063283 -0.52673604 -4.02056284 -0.52118407 0 0 Z " fill="#3B3737" transform="translate(317,86)"/>
<path d="M0 0 C1.9375 1.1875 1.9375 1.1875 3 3 C2.78973177 6.99509641 1.21009785 9.73224809 -1 13 C-7.10020282 18.38384872 -15.61829754 24 -24 24 C-21.46443146 14.36483955 -15.95091908 6.85574446 -8 1 C-5.20129973 -0.39935013 -3.09501208 -0.25265405 0 0 Z " fill="#3D3939" transform="translate(246,86)"/>
<path d="M0 0 C2 2 2 2 2.5625 4.625 C1.70474954 9.77150275 -1.16520812 12.59828116 -5 16 C-12.28915663 21 -12.28915663 21 -17 21 C-17 21.66 -17 22.32 -17 23 C-18.98 23.33 -20.96 23.66 -23 24 C-22.53900511 15.24109705 -16.60863349 8.10961539 -10.515625 2.27734375 C-7.17695117 -0.53643549 -4.25407467 -0.22789686 0 0 Z " fill="#3A3636" transform="translate(561,86)"/>
<path d="M0 0 C2 2 2 2 2.5625 4.625 C1.69573685 9.82557891 -1.0162995 12.66140626 -5 16 C-8.88071128 18.29705726 -12.88030633 20.17548122 -17 22 C-18.07701172 22.60714844 -18.07701172 22.60714844 -19.17578125 23.2265625 C-21 24 -21 24 -24 23 C-13.21266199 -1.14892713 -13.21266199 -1.14892713 0 0 Z " fill="#3C3838" transform="translate(630,86)"/>
<path d="M0 0 C-1.44727385 12.0606154 -6.61753051 23.51267757 -15.51953125 31.92578125 C-17 33 -17 33 -19 33 C-19.96128421 22.18555267 -14.55817827 13.19403847 -8 5 C-3.79954955 0 -3.79954955 0 0 0 Z " fill="#EFEFEF" transform="translate(703,95)"/>
<path d="M0 0 C-0.26765775 2.35538824 -0.60402192 4.66372931 -1 7 C-1.14953125 7.88429688 -1.2990625 8.76859375 -1.453125 9.6796875 C-3.31536143 18.68049693 -7.68844479 28.997047 -15 35 C-15.66 35 -16.32 35 -17 35 C-17.70314778 24.45278332 -13.952102 12.96819205 -7.19140625 4.8203125 C-2.53564257 0 -2.53564257 0 0 0 Z " fill="#EDECEC" transform="translate(476,95)"/>
<path d="M0 0 C1.65161581 0.75836443 3.29617138 1.53212076 4.9375 2.3125 C5.85402344 2.74175781 6.77054688 3.17101562 7.71484375 3.61328125 C10 5 10 5 11 8 C11.61617187 8.29648438 12.23234375 8.59296875 12.8671875 8.8984375 C18.00582303 11.55245805 20.47595624 18.57078976 22.375 23.75 C24.93882628 36.67377738 22.78947914 49.36483318 17 61 C15.68 61 14.36 61 13 61 C13.19335938 60.35933594 13.38671875 59.71867187 13.5859375 59.05859375 C13.84632813 58.19363281 14.10671875 57.32867187 14.375 56.4375 C14.63023437 55.59058594 14.88546875 54.74367187 15.1484375 53.87109375 C15.42945313 52.92363281 15.71046875 51.97617188 16 51 C16.53753906 49.39125 16.53753906 49.39125 17.0859375 47.75 C18.18074435 43.25848473 18.29385127 39.16322887 18.25 34.5625 C18.25773438 33.75490234 18.26546875 32.94730469 18.2734375 32.11523438 C18.2493039 24.62778474 17.13878814 18.39630895 13 12 C13 11.34 13 10.68 13 10 C12.43796875 9.731875 11.8759375 9.46375 11.296875 9.1875 C8.84449354 7.9196021 6.56072317 6.51027658 4.25 5 C3.45078125 4.484375 2.6515625 3.96875 1.828125 3.4375 C0.92320312 2.7259375 0.92320312 2.7259375 0 2 C0 1.34 0 0.68 0 0 Z " fill="#C9C3C3" transform="translate(727,62)"/>
<path d="M0 0 C7.98937413 1.60897118 12.3979224 5.35005413 17 12 C22.37495202 23.42177303 18.51789144 37.50907721 15 49 C14.35931548 50.67682604 13.70366235 52.34861224 13 54 C12.34 54 11.68 54 11 54 C10.67 54.99 10.34 55.98 10 57 C9.67 57 9.34 57 9 57 C9.31792063 49.95805799 10.82597185 43.75481932 13.0625 37.078125 C15.80645904 28.06879281 15.79547632 20.31526489 12.41015625 11.5546875 C10.50398214 8.101397 8.20304549 6.29673497 4.90234375 4.21875 C2.98798115 2.99230004 1.54642677 1.65722994 0 0 Z " fill="#C7C2C3" transform="translate(523,12)"/>
<path d="M0 0 C4.76012332 0.42001088 7.96010804 2.41042895 11 6 C16.40274586 14.62776954 16.10725781 24.86339048 14.3515625 34.59375 C12.43456113 42.56543887 12.43456113 42.56543887 11 44 C9.33382885 44.04063832 7.66611905 44.042721 6 44 C6.47627975 42.04096255 6.95611423 40.08278903 7.4375 38.125 C7.70433594 37.03445312 7.97117188 35.94390625 8.24609375 34.8203125 C9 32 9 32 10 30 C11.17879154 17.5684646 11.17879154 17.5684646 6.4453125 6.515625 C5.96835938 6.01546875 5.49140625 5.5153125 5 5 C4.52304688 4.47921875 4.04609375 3.9584375 3.5546875 3.421875 C2.41473888 2.23632843 1.21382823 1.10978581 0 0 Z " fill="#CECBCB" transform="translate(177,14)"/>
<path d="M0 0 C0.33 0 0.66 0 1 0 C3.0182866 8.85248481 0.52773854 14.88340896 -3 23 C-3.94828141 25.43332589 -4.88621464 27.87071624 -5.8125 30.3125 C-6.54166667 32.20833333 -7.27083333 34.10416667 -8 36 C-12.67325155 36 -14.82359047 34.92757363 -19 33 C-16.87340026 30.75452201 -14.66368322 29.00830978 -12.125 27.25 C-6.63808793 23.18524712 -3.19044022 18.47690513 -1 12 C-0.72123482 9.9040014 -0.51411256 7.79737389 -0.375 5.6875 C-0.30023438 4.61886719 -0.22546875 3.55023438 -0.1484375 2.44921875 C-0.09945313 1.64097656 -0.05046875 0.83273438 0 0 Z " fill="#DDDDDD" transform="translate(344,84)"/>
<path d="M0 0 C0.66 0.33 1.32 0.66 2 1 C1.65066406 2.02480469 1.30132813 3.04960938 0.94140625 4.10546875 C0.48160964 5.46609137 0.0219832 6.82677151 -0.4375 8.1875 C-0.66759766 8.86103516 -0.89769531 9.53457031 -1.13476562 10.22851562 C-2.33524085 13.79514491 -3.37277495 17.2871161 -4 21 C-7.5786304 19.34832443 -10.74820188 17.21713508 -14 15 C-11.48917747 12.48917747 -8.97916578 9.97967393 -6.4375 7.5 C-4.10870056 5.11148775 -2.03621503 2.639538 0 0 Z " fill="#EBEBEB" transform="translate(653,102)"/>
<path d="M0 0 C0.66 0.33 1.32 0.66 2 1 C1.01 2.485 1.01 2.485 0 4 C-0.46664827 6.16688457 -0.46664827 6.16688457 -0.67578125 8.578125 C-0.77898682 9.4848999 -0.88219238 10.3916748 -0.98852539 11.32592773 C-1.09543701 12.29087158 -1.20234863 13.25581543 -1.3125 14.25 C-2.32359839 22.52883302 -3.9118487 29.99976768 -6.81640625 37.80859375 C-8.0762773 41.06777741 -8.0762773 41.06777741 -9.05078125 44.7890625 C-9.95693367 47.85431882 -10.52327429 49.0861665 -13 51 C-13.33 50.34 -13.66 49.68 -14 49 C-13.35223509 47.41143367 -12.62687544 45.85452 -11.875 44.3125 C-6.43506821 31.78095798 -4.24944344 17.50405223 -2.45703125 4.01171875 C-2 2 -2 2 0 0 Z " fill="#BEBDBC" transform="translate(140,14)"/>
<path d="M0 0 C1.65161581 0.75836443 3.29617138 1.53212076 4.9375 2.3125 C5.85402344 2.74175781 6.77054688 3.17101562 7.71484375 3.61328125 C10 5 10 5 11 8 C11.61488281 8.28875 12.22976563 8.5775 12.86328125 8.875 C15.73225921 10.3855405 16.60465504 12.200521 18.1875 15 C18.69667969 15.886875 19.20585938 16.77375 19.73046875 17.6875 C21.56689849 21.0326274 22.11700658 22.80953954 22.0625 26.625 C22.05347656 27.44226563 22.04445313 28.25953125 22.03515625 29.1015625 C22.02355469 29.72804688 22.01195312 30.35453125 22 31 C21.67 31 21.34 31 21 31 C20.67 33.97 20.34 36.94 20 40 C19.67 40 19.34 40 19 40 C18.96036133 39.40050537 18.92072266 38.80101074 18.87988281 38.18334961 C18.68781713 35.43314942 18.4691233 32.68567143 18.25 29.9375 C18.188125 28.99455078 18.12625 28.05160156 18.0625 27.08007812 C17.55090669 20.9622748 16.35388073 17.13307356 13 12 C13 11.34 13 10.68 13 10 C12.43796875 9.731875 11.8759375 9.46375 11.296875 9.1875 C8.84449354 7.9196021 6.56072317 6.51027658 4.25 5 C3.45078125 4.484375 2.6515625 3.96875 1.828125 3.4375 C0.92320312 2.7259375 0.92320312 2.7259375 0 2 C0 1.34 0 0.68 0 0 Z " fill="#C6C3C2" transform="translate(727,62)"/>
<path d="M0 0 C0.99 0.33 1.98 0.66 3 1 C2.13375 1.5775 1.2675 2.155 0.375 2.75 C-4.95953902 7.36056587 -8.53018002 13.4272635 -9.2578125 20.50927734 C-9.5094457 26.35240997 -9.31147126 32.16279789 -9 38 C-9.99 37.67 -10.98 37.34 -12 37 C-14.43303707 31.35977771 -13.22084684 22.91154295 -12 17 C-9.29562592 10.40627072 -5.44677102 4.62150268 0 0 Z " fill="#C8C6C5" transform="translate(78,65)"/>
<path d="M0 0 C0.33 0 0.66 0 1 0 C1.60834084 7.36768356 0.56670101 14.23938559 -0.875 21.4375 C-1.04870117 22.31374023 -1.22240234 23.18998047 -1.40136719 24.09277344 C-2.23103631 28.06322328 -3.11365674 31.3925579 -5 35 C-5.4154465 36.40533756 -5.79200436 37.82287585 -6.125 39.25 C-6.41375 40.4875 -6.7025 41.725 -7 43 C-7.66 43 -8.32 43 -9 43 C-8.71390693 41.60301364 -8.42083095 40.2074567 -8.125 38.8125 C-7.96257812 38.03519531 -7.80015625 37.25789063 -7.6328125 36.45703125 C-7 34 -7 34 -6.02514648 31.74169922 C-4.88734455 28.69870904 -4.4088223 25.89278669 -3.96484375 22.67578125 C-3.79533203 21.48275391 -3.62582031 20.28972656 -3.45117188 19.06054688 C-3.28166016 17.82369141 -3.11214844 16.58683594 -2.9375 15.3125 C-2.59549849 12.84983484 -2.25059681 10.38757013 -1.90234375 7.92578125 C-1.67792603 6.29249878 -1.67792603 6.29249878 -1.44897461 4.6262207 C-1 2 -1 2 0 0 Z " fill="#BFBDBE" transform="translate(488,19)"/>
<path d="M0 0 C0.66 0 1.32 0 2 0 C2.66 0.66 3.32 1.32 4 2 C3.67238912 7.46018129 2.02344607 11.98537277 0 17 C-0.66 17 -1.32 17 -2 17 C-2.33 17.99 -2.66 18.98 -3 20 C-3.33 20 -3.66 20 -4 20 C-3.56615452 12.96871122 -2.25678003 6.670985 0 0 Z " fill="#C2C0C0" transform="translate(536,49)"/>
<path d="M0 0 C0.66 0 1.32 0 2 0 C1.79503906 0.7528125 1.59007812 1.505625 1.37890625 2.28125 C-0.60473261 10.10191232 -1.45667119 17.42804604 -1.7890625 25.46875 C-1.96590197 28.42917368 -2.32442655 31.12050662 -3 34 C-3.33 34 -3.66 34 -4 34 C-4.02917234 30.12501596 -4.04685673 26.25006042 -4.0625 22.375 C-4.07087891 21.28058594 -4.07925781 20.18617188 -4.08789062 19.05859375 C-4.09111328 17.99511719 -4.09433594 16.93164062 -4.09765625 15.8359375 C-4.10289307 14.86188965 -4.10812988 13.8878418 -4.11352539 12.88427734 C-3.99414506 9.85124679 -3.55866724 6.98084732 -3 4 C-2.34 4 -1.68 4 -1 4 C-0.67 2.68 -0.34 1.36 0 0 Z " fill="#BBB4B5" transform="translate(675,181)"/>
<path d="M0 0 C-2.86695808 4.07990188 -5.30444972 6.25067735 -10 8 C-13.875 8.1875 -13.875 8.1875 -17 8 C-17.33 6.68 -17.66 5.36 -18 4 C-15.37764986 3.13683464 -12.75266548 2.28419221 -10.125 1.4375 C-9.37863281 1.19064453 -8.63226562 0.94378906 -7.86328125 0.68945312 C-2.2265625 -1.11328125 -2.2265625 -1.11328125 0 0 Z " fill="#E6E6E6" transform="translate(560,122)"/>
<path d="M0 0 C0 0.99 0 1.98 0 3 C-5.07950046 7.53036528 -8.14548444 9.25866096 -15 9 C-15.33 7.68 -15.66 6.36 -16 5 C-15.09636719 4.72285156 -14.19273437 4.44570312 -13.26171875 4.16015625 C-12.08222656 3.79792969 -10.90273438 3.43570313 -9.6875 3.0625 C-7.92986328 2.52302734 -7.92986328 2.52302734 -6.13671875 1.97265625 C-4.08446023 1.33627721 -2.03839863 0.67946621 0 0 Z " fill="#E3E3E2" transform="translate(314,121)"/>
<path d="M0 0 C-4.25708444 4.63270954 -7.91607766 7.82867098 -14.375 8.1875 C-15.674375 8.0946875 -15.674375 8.0946875 -17 8 C-16.93359375 6.17578125 -16.93359375 6.17578125 -16 4 C-13.64026762 2.83952478 -11.53975161 1.98542544 -9.0625 1.1875 C-8.41603516 0.95869141 -7.76957031 0.72988281 -7.10351562 0.49414062 C-2.28446776 -1.14223388 -2.28446776 -1.14223388 0 0 Z " fill="#DEDEDD" transform="translate(245,122)"/>
<path d="M0 0 C-4.46110884 4.69061926 -7.75613543 6.66558274 -14.27734375 6.9921875 C-14.84582031 6.99476563 -15.41429687 6.99734375 -16 7 C-16.33 5.68 -16.66 4.36 -17 3 C-14.54383175 2.30378686 -12.0855877 1.61775372 -9.625 0.9375 C-8.57699219 0.63875977 -8.57699219 0.63875977 -7.5078125 0.33398438 C-2.2265625 -1.11328125 -2.2265625 -1.11328125 0 0 Z " fill="#E6E6E5" transform="translate(628,123)"/>
<path d="M0 0 C0.33 0 0.66 0 1 0 C1.33 4.62 1.66 9.24 2 14 C2.66 14 3.32 14 4 14 C4.34933594 14.71027344 4.69867188 15.42054688 5.05859375 16.15234375 C5.51363281 17.07144531 5.96867187 17.99054688 6.4375 18.9375 C7.11619141 20.31228516 7.11619141 20.31228516 7.80859375 21.71484375 C8.80525394 23.90528904 8.80525394 23.90528904 10 25 C10.04063832 26.66617115 10.042721 28.33388095 10 30 C4.51851549 25.1058174 1.40671774 19.15081519 0 12 C-0.1509967 7.99355428 -0.11843079 4.0069084 0 0 Z " fill="#BAB8B9" transform="translate(34,127)"/>
<path d="M0 0 C2.15191647 2.07506231 4.05404111 4.07453946 5.8125 6.5 C7.842061 8.81949829 9.0430625 9.68631314 11.6875 11.0625 C15 13 15 13 15.9375 15.25 C15.958125 15.8275 15.97875 16.405 16 17 C12.12697862 15.85569823 8.99736561 14.76679902 6 12 C6 11.34 6 10.68 6 10 C5.38125 9.7525 4.7625 9.505 4.125 9.25 C1.58469272 7.7557016 0.97135817 6.75218149 0 4 C0 2.68 0 1.36 0 0 Z " fill="#BBBABA" transform="translate(621,202)"/>
<path d="M0 0 C0.33 0 0.66 0 1 0 C1.19609482 5.35759069 0.5557029 9.99879258 -0.75 15.1875 C-0.90726563 15.88552734 -1.06453125 16.58355469 -1.2265625 17.30273438 C-2.29367812 21.61634404 -3.53729525 24.18473374 -7 27 C-7.33 26.34 -7.66 25.68 -8 25 C-7.32181829 23.20043887 -6.55501455 21.43401146 -5.75 19.6875 C-2.95639354 13.26765228 -1.35907829 6.85063852 0 0 Z " fill="#BBBAB9" transform="translate(134,38)"/>
<path d="M0 0 C0.054138 2.24973447 0.09285491 4.49984383 0.125 6.75 C0.14820313 8.00296875 0.17140625 9.2559375 0.1953125 10.546875 C0.01537302 13.72820492 -0.31001418 15.36521896 -2 18 C-2.66 18 -3.32 18 -4 18 C-3.67 12.39 -3.34 6.78 -3 1 C-1 0 -1 0 0 0 Z " fill="#C1BCBB" transform="translate(750,90)"/>
<path d="M0 0 C1.73360665 3.46721329 0.48361845 7.23852315 0 11 C-2.97 10.01 -5.94 9.02 -9 8 C-9 7.34 -9 6.68 -9 6 C-7.03125 4.4921875 -7.03125 4.4921875 -4.5 2.875 C-3.6646875 2.33617188 -2.829375 1.79734375 -1.96875 1.2421875 C-1.3190625 0.83226563 -0.669375 0.42234375 0 0 Z " fill="#D1D0D0" transform="translate(263,110)"/>
<path d="M0 0 C0.99 0.33 1.98 0.66 3 1 C2.21625 1.598125 1.4325 2.19625 0.625 2.8125 C-2.14574323 4.91085249 -2.14574323 4.91085249 -4 8 C-9.85659906 6.33846988 -15.4590134 4.52958084 -21 2 C-16.69619955 0.56539985 -14.43799431 2.41313391 -10.47265625 4.28515625 C-8.03296072 5.25039882 -8.03296072 5.25039882 -5.8125 4.2265625 C-3.91446784 2.98205229 -3.91446784 2.98205229 -1.9375 1.3125 C-1.298125 0.879375 -0.65875 0.44625 0 0 Z " fill="#E2E0DF" transform="translate(658,59)"/>
<path d="M0 0 C0.33 0 0.66 0 1 0 C1 5.94 1 11.88 1 18 C0.01 18 -0.98 18 -2 18 C-2.2361959 11.59646678 -1.823321 6.15370839 0 0 Z " fill="#A5A6A6" transform="translate(507,113)"/>
<path d="M0 0 C3.94139078 1.66751148 6.7892812 4.22710649 10 7 C11.11375 6.1028125 11.11375 6.1028125 12.25 5.1875 C14.47417764 3.41826778 16.71662235 1.69139085 19 0 C19.66 0.33 20.32 0.66 21 1 C12.738041 8.66742597 12.738041 8.66742597 8 10 C6.85157077 8.71064081 5.70633773 7.41843421 4.5625 6.125 C3.92441406 5.40570313 3.28632813 4.68640625 2.62890625 3.9453125 C1 2 1 2 0 0 Z " fill="#C2C1C1" transform="translate(269,67)"/>
<path d="M0 0 C0.99386719 0.00902344 1.98773438 0.01804688 3.01171875 0.02734375 C4.15060547 0.04474609 4.15060547 0.04474609 5.3125 0.0625 C4.9825 1.0525 4.6525 2.0425 4.3125 3.0625 C-0.3075 3.3925 -4.9275 3.7225 -9.6875 4.0625 C-9.3575 3.0725 -9.0275 2.0825 -8.6875 1.0625 C-5.53819107 0.01273036 -3.29935544 -0.03881595 0 0 Z " fill="#363534" transform="translate(103.6875,63.9375)"/>
<path d="M0 0 C0.33 0 0.66 0 1 0 C1 4.62 1 9.24 1 14 C0.01 13.67 -0.98 13.34 -2 13 C-2.33 14.32 -2.66 15.64 -3 17 C-4.17275118 13.48174645 -3.80077874 11.56863959 -3.1875 7.9375 C-3.01605469 6.87402344 -2.84460938 5.81054688 -2.66796875 4.71484375 C-2 2 -2 2 0 0 Z " fill="#C7C5C4" transform="translate(191,30)"/>
<path d="M0 0 C0.99 0.33 1.98 0.66 3 1 C1.0862931 2.46236093 -0.83075233 3.91994246 -2.75 5.375 C-3.55824219 5.99375 -3.55824219 5.99375 -4.3828125 6.625 C-7.14944813 8.71684645 -9.8209088 10.59564418 -13 12 C-14.98 8.535 -14.98 8.535 -17 5 C-14.53199953 6.15173355 -12.95216435 7.04783565 -11 9 C-10.37351562 8.43410156 -9.74703125 7.86820312 -9.1015625 7.28515625 C-8.28429687 6.55167969 -7.46703125 5.81820312 -6.625 5.0625 C-5.81289063 4.33160156 -5.00078125 3.60070312 -4.1640625 2.84765625 C-2 1 -2 1 0 0 Z " fill="#CAC6C7" transform="translate(450,65)"/>
<path d="M0 0 C0.66 0 1.32 0 2 0 C3.20272819 2.40545638 3.10071472 3.94996953 3.0625 6.625 C3.05347656 7.44226563 3.04445313 8.25953125 3.03515625 9.1015625 C3.02355469 9.72804688 3.01195312 10.35453125 3 11 C2.67 11 2.34 11 2 11 C1.67 13.97 1.34 16.94 1 20 C0.67 20 0.34 20 0 20 C-0.19594676 16.85463232 -0.3803401 13.70869386 -0.5625 10.5625 C-0.61857422 9.66466797 -0.67464844 8.76683594 -0.73242188 7.84179688 C-0.78076172 6.98779297 -0.82910156 6.13378906 -0.87890625 5.25390625 C-0.9260376 4.46314697 -0.97316895 3.6723877 -1.02172852 2.85766602 C-1 1 -1 1 0 0 Z " fill="#D7D4D3" transform="translate(746,82)"/>
<path d="M0 0 C0.99 0.66 1.98 1.32 3 2 C0 9.57142857 0 9.57142857 -3 12 C-3.36923077 4.61538462 -3.36923077 4.61538462 -1.5 1.5 C-1.005 1.005 -0.51 0.51 0 0 Z " fill="#B2AEAD" transform="translate(741,122)"/>
<path d="M0 0 C0.66 0 1.32 0 2 0 C1.34 2.97 0.68 5.94 0 9 C-3.37462715 8.45276317 -5.08235 7.9451 -8 6 C-7.05125 5.38125 -6.1025 4.7625 -5.125 4.125 C-2.05554891 2.18029031 -2.05554891 2.18029031 0 0 Z " fill="#D4D3D2" transform="translate(576,110)"/>
<path d="M0 0 C5.27388024 -0.50227431 7.91015695 0.67105798 12 4 C12.33 4.99 12.66 5.98 13 7 C7.83572624 5.7605743 4.24563172 4.21011179 0 1 C0 0.67 0 0.34 0 0 Z " fill="#BBB9B9" transform="translate(269,160)"/>
<path d="M0 0 C0.66 0.33 1.32 0.66 2 1 C-2.29 5.29 -6.58 9.58 -11 14 C-11 9.40845608 -8.09282279 7.18698368 -5 4 C-3.3719908 2.61973133 -1.71956118 1.26438322 0 0 Z " fill="#4B4C4E" transform="translate(531,76)"/>
<path d="M0 0 C0.33 0.66 0.66 1.32 1 2 C1.66 2 2.32 2 3 2 C4.39195915 6.17587745 2.82323219 8.13474776 1 12 C-1.23551759 8.64672361 -1.17283528 8.09256343 -0.625 4.3125 C-0.51414062 3.50425781 -0.40328125 2.69601563 -0.2890625 1.86328125 C-0.19367187 1.24839844 -0.09828125 0.63351563 0 0 Z " fill="#CCC8C7" transform="translate(538,40)"/>
<path d="M0 0 C2.06681445 2.61071299 3.93109607 5.33837839 5.75 8.125 C6.19859375 8.80820313 6.6471875 9.49140625 7.109375 10.1953125 C7.40328125 10.79085937 7.6971875 11.38640625 8 12 C7.67 12.66 7.34 13.32 7 14 C2.91579048 10.43940709 1.60847686 8.35459638 1 3 C0.34 2.67 -0.32 2.34 -1 2 C-0.67 1.34 -0.34 0.68 0 0 Z " fill="#C7C6C6" transform="translate(152,164)"/>
<path d="M0 0 C5.28 0.33 10.56 0.66 16 1 C16 1.33 16 1.66 16 2 C15.25234375 2.06058594 14.5046875 2.12117187 13.734375 2.18359375 C12.74953125 2.26738281 11.7646875 2.35117188 10.75 2.4375 C9.77546875 2.51871094 8.8009375 2.59992188 7.796875 2.68359375 C5.43538247 2.95074584 3.28098935 3.35371968 1 4 C0.67 2.68 0.34 1.36 0 0 Z " fill="#C8C6C5" transform="translate(391,164)"/>
<path d="M0 0 C0.33 0 0.66 0 1 0 C1 3.63 1 7.26 1 11 C0.01 11 -0.98 11 -2 11 C-2.28571429 3.57142857 -2.28571429 3.57142857 0 0 Z " fill="#E9E8E8" transform="translate(422,119)"/>
<path d="M0 0 C0.33 0.99 0.66 1.98 1 3 C1.66 3 2.32 3 3 3 C1 7 -1 11 -3 15 C-4.28497537 11.14507389 -3.4052209 9.59653164 -2.0625 5.8125 C-1.68222656 4.72582031 -1.30195312 3.63914062 -0.91015625 2.51953125 C-0.60980469 1.68808594 -0.30945313 0.85664062 0 0 Z " fill="#C3C2C2" transform="translate(516,85)"/>
<path d="M0 0 C0.93423645 3.01031744 1.04449911 3.86650268 0 7 C0.99 7.33 1.98 7.66 3 8 C2.67 8.66 2.34 9.32 2 10 C1.34 10 0.68 10 0 10 C-0.33 10.99 -0.66 11.98 -1 13 C-1.33 13 -1.66 13 -2 13 C-1.85851011 11.3954444 -1.71164314 9.79136233 -1.5625 8.1875 C-1.48128906 7.29417969 -1.40007813 6.40085937 -1.31640625 5.48046875 C-1 3 -1 3 0 0 Z " fill="#CECCCC" transform="translate(534,56)"/>
<path d="M0 0 C4.92249987 0.46148436 9.27737682 2.80390169 13 6 C13 6.99 13 7.98 13 9 C12.39671875 8.57847656 11.7934375 8.15695313 11.171875 7.72265625 C10.37265625 7.17480469 9.5734375 6.62695312 8.75 6.0625 C7.96109375 5.51722656 7.1721875 4.97195312 6.359375 4.41015625 C4.17363007 3.10377559 2.4846199 2.45019489 0 2 C0 1.34 0 0.68 0 0 Z " fill="#D2CFCF" transform="translate(419,61)"/>
<path d="M0 0 C-1.5830577 4.2742558 -4.50568404 6.26531794 -8 9 C-8.66 8.67 -9.32 8.34 -10 8 C-9.04578192 6.85073734 -8.08647955 5.70569459 -7.125 4.5625 C-6.59132813 3.92441406 -6.05765625 3.28632812 -5.5078125 2.62890625 C-3.68057607 0.65492285 -2.70796331 0 0 0 Z " fill="#DBDBDB" transform="translate(394,97)"/>
<path d="M0 0 C1.63410952 0.70851612 3.25709862 1.44271537 4.875 2.1875 C6.23238281 2.79658203 6.23238281 2.79658203 7.6171875 3.41796875 C10.46460099 5.30846459 11.05619488 6.77262041 12 10 C11.46890625 9.59007813 10.9378125 9.18015625 10.390625 8.7578125 C9.68421875 8.21898438 8.9778125 7.68015625 8.25 7.125 C7.55390625 6.59132813 6.8578125 6.05765625 6.140625 5.5078125 C4.15277397 4.10761086 2.20156614 3.02144735 0 2 C0 1.34 0 0.68 0 0 Z " fill="#DCD9D8" transform="translate(727,62)"/>
<path d="M0 0 C-0.11409593 1.45922693 -0.24165544 2.91740598 -0.375 4.375 C-0.44460938 5.18710938 -0.51421875 5.99921875 -0.5859375 6.8359375 C-1 9 -1 9 -3 11 C-3 7.7 -3 4.4 -3 1 C-1 0 -1 0 0 0 Z " fill="#B5AFAE" transform="translate(376,151)"/>
<path d="M0 0 C2.57553142 3.86329714 4.92177718 7.84355437 7 12 C5.1875 11.875 5.1875 11.875 3 11 C0.61517162 7.25241255 -0.39145737 4.43651689 0 0 Z " fill="#CEC9C9" transform="translate(377,147)"/>
<path d="M0 0 C0 3 0 3 -1.375 4.6875 C-3 6 -3 6 -5 6 C-5 5.34 -5 4.68 -5 4 C-6.32 3.67 -7.64 3.34 -9 3 C-6.03 2.01 -3.06 1.02 0 0 Z " fill="#C0C1C1" transform="translate(314,121)"/>
<path d="M0 0 C2.475 0.99 2.475 0.99 5 2 C4.67 2.66 4.34 3.32 4 4 C1.36 4 -1.28 4 -4 4 C-2.68 2.68 -1.36 1.36 0 0 Z " fill="#CCC9C9" transform="translate(473,161)"/>
<path d="M0 0 C0 0.99 0 1.98 0 3 C-6.5 5.125 -6.5 5.125 -11 4 C-7.37 2.68 -3.74 1.36 0 0 Z " fill="#DAD8D7" transform="translate(306,60)"/>
<path d="M0 0 C2.4375 1.1875 2.4375 1.1875 5 3 C5.8125 5.6875 5.8125 5.6875 6 8 C1.3125 4.38671875 1.3125 4.38671875 0 3 C0 2.01 0 1.02 0 0 Z " fill="#B9B7B7" transform="translate(158,177)"/>
<path d="M0 0 C0.33 0 0.66 0 1 0 C0.56179109 4.55737263 0.14958831 7.57653445 -3 11 C-2.88590407 9.54077307 -2.75834456 8.08259402 -2.625 6.625 C-2.55539063 5.81289062 -2.48578125 5.00078125 -2.4140625 4.1640625 C-2 2 -2 2 0 0 Z " fill="#BBB5B5" transform="translate(226,171)"/>
<path d="M0 0 C1.32 0.33 2.64 0.66 4 1 C4.125 3.875 4.125 3.875 4 7 C3.34 7.66 2.68 8.32 2 9 C1.34 6.03 0.68 3.06 0 0 Z " fill="#D1CFCF" transform="translate(536,23)"/>
<path d="M0 0 C0.66 0.66 1.32 1.32 2 2 C1.96712417 4.72869407 1.43602229 7.2966618 1 10 C-1.1385485 7.8614515 -1.42655063 6.86724686 -2 4 C-1.34 4 -0.68 4 0 4 C0 2.68 0 1.36 0 0 Z " fill="#ECECEC" transform="translate(185,123)"/>
<path d="M0 0 C0.93423645 3.01031744 1.04449911 3.86650268 0 7 C0.99 7.33 1.98 7.66 3 8 C1.35 9.32 -0.3 10.64 -2 12 C-3.40907283 9.18185434 -2.50872691 7.82722796 -1.5625 4.875 C-1.27503906 3.96492188 -0.98757812 3.05484375 -0.69140625 2.1171875 C-0.46324219 1.41851562 -0.23507813 0.71984375 0 0 Z " fill="#685452" transform="translate(151,102)"/>
<path d="M0 0 C0.66 0.33 1.32 0.66 2 1 C-0.64 3.64 -3.28 6.28 -6 9 C-6.66 8.67 -7.32 8.34 -8 8 C-5.33333333 5.33333333 -2.66666667 2.66666667 0 0 Z " fill="#4E4342" transform="translate(308,87)"/>
<path d="M0 0 C0.66 0.33 1.32 0.66 2 1 C0.88121617 2.17262904 -0.24523051 3.33795138 -1.375 4.5 C-2.00148438 5.1496875 -2.62796875 5.799375 -3.2734375 6.46875 C-5 8 -5 8 -7 8 C-5.50902342 4.2047869 -3.24299151 2.38957269 0 0 Z " fill="#515354" transform="translate(86,68)"/>
<path d="M0 0 C1.32176485 0.90325616 2.63215066 1.82317903 3.9375 2.75 C4.66839844 3.26046875 5.39929688 3.7709375 6.15234375 4.296875 C8.20805399 6.19177915 8.62669176 7.27425729 9 10 C7.86800647 9.0919838 6.74467637 8.17316174 5.625 7.25 C4.99851562 6.73953125 4.37203125 6.2290625 3.7265625 5.703125 C1.91687682 3.91800519 0.99882545 2.32050356 0 0 Z " fill="#ABA9A9" transform="translate(583,65)"/>
<path d="M0 0 C-1.28913487 0.67154933 -2.58140204 1.33708859 -3.875 2 C-4.59429687 2.37125 -5.31359375 2.7425 -6.0546875 3.125 C-8 4 -8 4 -10 4 C-10 3.34 -10 2.68 -10 2 C-4.10714286 -1.34821429 -4.10714286 -1.34821429 0 0 Z " fill="#D8D8D7" transform="translate(91,61)"/>
<path d="M0 0 C0.66 0.33 1.32 0.66 2 1 C2 2.65 2 4.3 2 6 C1.01 6.495 1.01 6.495 0 7 C-0.66 7.99 -1.32 8.98 -2 10 C-1.54177532 6.53058454 -1.10868317 3.32604951 0 0 Z " fill="#CAC7C6" transform="translate(675,175)"/>
<path d="M0 0 C0.99 0.33 1.98 0.66 3 1 C1.42655961 4.14688078 -1.27851951 5.79965407 -4 8 C-4.66 7.67 -5.32 7.34 -6 7 C-4.02 4.69 -2.04 2.38 0 0 Z " fill="#DBDADC" transform="translate(511,143)"/>
<path d="M0 0 C3.9492568 0.55105909 7.34920174 1.38935371 11 3 C9.4375 4.25 9.4375 4.25 7 5 C4.42998985 3.93237266 2.3469597 2.53455057 0 1 C0 0.67 0 0.34 0 0 Z " fill="#D2D1D1" transform="translate(689,60)"/>
<path d="M0 0 C1.3609623 2.7219246 0.70366248 4.1831957 0.0625 7.125 C-0.13214844 8.03507812 -0.32679688 8.94515625 -0.52734375 9.8828125 C-0.68332031 10.58148438 -0.83929688 11.28015625 -1 12 C-1.33 12 -1.66 12 -2 12 C-3.02375082 7.59787148 -3.08258987 5.04948031 -1 1 C-0.67 0.67 -0.34 0.34 0 0 Z " fill="#D0CFD0" transform="translate(487,35)"/>
<path d="M0 0 C2.31 0.33 4.62 0.66 7 1 C6.01 2.485 6.01 2.485 5 4 C3.68 4 2.36 4 1 4 C0.67 2.68 0.34 1.36 0 0 Z " fill="#C8C7C7" transform="translate(636,216)"/>
<path d="M0 0 C0.6875 2.0625 0.6875 2.0625 1 4 C-1.9719385 2.87548273 -4.33440687 1.77706209 -7 0 C-3.98968256 -0.93423645 -3.13349732 -1.04449911 0 0 Z " fill="#B8B5B4" transform="translate(118,162)"/>
<path d="M0 0 C-2 2 -2 2 -3.9453125 2.1953125 C-5.96354167 2.13020833 -7.98177083 2.06510417 -10 2 C-6.19832777 -0.53444815 -4.31588991 -1.33941411 0 0 Z " fill="#E2DFDF" transform="translate(622,61)"/>
<path d="M0 0 C0 0.66 0 1.32 0 2 C-3.3 2.66 -6.6 3.32 -10 4 C-9 2 -9 2 -6.6875 0.875 C-4 0 -4 0 0 0 Z " fill="#DBD8D8" transform="translate(464,61)"/>
<path d="M0 0 C0.99 0.33 1.98 0.66 3 1 C-1.39453125 5.00390625 -1.39453125 5.00390625 -3 6 C-3.99 5.67 -4.98 5.34 -6 5 C-1.60546875 0.99609375 -1.60546875 0.99609375 0 0 Z " fill="#B8B3B4" transform="translate(658,59)"/>
<path d="M0 0 C1.485 0.99 1.485 0.99 3 2 C2.67 3.98 2.34 5.96 2 8 C1.34 8 0.68 8 0 8 C-0.98120464 4.94736336 -0.98120464 3.05263664 0 0 Z " fill="#B6B2B2" transform="translate(537,49)"/>
<path d="M0 0 C0 0.33 0 0.66 0 1 C-1.36125 1.433125 -1.36125 1.433125 -2.75 1.875 C-5.32202908 2.76531776 -7.61346766 3.71494413 -10 5 C-7.62417533 -0.26075462 -5.61350876 -0.1220328 0 0 Z " fill="#554645" transform="translate(113,84)"/>
<path d="M0 0 C1.46726798 3.81489674 0.43336419 6.29011622 -1 10 C-3 6.25 -3 6.25 -3 4 C-2.34 3.67 -1.68 3.34 -1 3 C-0.67 2.01 -0.34 1.02 0 0 Z " fill="#C4C4C4" transform="translate(659,78)"/>
<path d="M0 0 C0.556875 0.28875 1.11375 0.5775 1.6875 0.875 C4.08494645 2.0413253 6.51596939 3.0339881 9 4 C7.02 4.99 7.02 4.99 5 6 C3.2925002 4.71937515 1.62626404 3.38232443 0 2 C0 1.34 0 0.68 0 0 Z " fill="#C0BEBE" transform="translate(211,62)"/>
<path d="M0 0 C3 0 3 0 5 1 C4.67 1.99 4.34 2.98 4 4 C2.35 4 0.7 4 -1 4 C-0.67 2.68 -0.34 1.36 0 0 Z " fill="#D7D6D6" transform="translate(184,54)"/>
<path d="M0 0 C0.66 0 1.32 0 2 0 C1.34 2.97 0.68 5.94 0 9 C-0.33 9 -0.66 9 -1 9 C-1.09765625 2.84765625 -1.09765625 2.84765625 -1 1 C-0.67 0.67 -0.34 0.34 0 0 Z " fill="#CDC9C7" transform="translate(136,33)"/>
<path d="M0 0 C0.66 0.33 1.32 0.66 2 1 C0.02 3.31 -1.96 5.62 -4 8 C-4.33 6.68 -4.66 5.36 -5 4 C-3.35 2.68 -1.7 1.36 0 0 Z " fill="#CFCCCE" transform="translate(494,11)"/>
</svg>
